<?xml version="1.0" encoding="UTF-8"?>
<!DOCTYPE svg PUBLIC "-//W3C//DTD SVG 1.1//EN" "http://www.w3.org/Graphics/SVG/1.1/DTD/svg11.dtd">
<!-- Creator: CorelDRAW X8 -->
<svg xmlns="http://www.w3.org/2000/svg" xml:space="preserve" width="1.97522in" height="2.20717in" version="1.1" style="shape-rendering:geometricPrecision; text-rendering:geometricPrecision; image-rendering:optimizeQuality; fill-rule:evenodd; clip-rule:evenodd"
viewBox="0 0 1051 1174"
 xmlns:xlink="http://www.w3.org/1999/xlink">
 <defs>
  <style type="text/css">
   <![CDATA[
    .str2 {stroke:#373435;stroke-width:1.84757}
    .str5 {stroke:#373435;stroke-width:7.38817}
    .str0 {stroke:#373435;stroke-width:7.39027}
    .str3 {stroke:#0098DA;stroke-width:3.69304}
    .str4 {stroke:#0098DA;stroke-width:3.69304}
    .str1 {stroke:#373435;stroke-width:3.69513}
    .fil0 {fill:none}
    .fil3 {fill:none;fill-rule:nonzero}
    .fil7 {fill:#373435}
    .fil5 {fill:#373435}
    .fil4 {fill:#0098DA}
    .fil6 {fill:#0098DA}
    .fil2 {fill:#373435}
    .fil1 {fill:#373435;fill-rule:nonzero}
    .fnt0 {font-style:italic;font-weight:bold;font-size:30.8095px;font-family:'Lato'}
    .fnt2 {font-style:italic;font-weight:bold;font-size:31.6705px;font-family:'Lato'}
    .fnt1 {font-style:italic;font-weight:bold;font-size:36.9492px;font-family:'Lato'}
    .fnt3 {font-style:italic;font-weight:bold;font-size:88.6769px;font-family:'Lato'}
   ]]>
  </style>
 </defs>
 <g id="Layer_x0020_1">
  <metadata id="CorelCorpID_0Corel-Layer"/>
  <line class="fil0 str0" x1="174" y1="386" x2="174" y2= "319" />
  <line class="fil0 str0" x1="171" y1="385" x2="220" y2= "385" />
  <line class="fil0 str0" x1="171" y1="320" x2="220" y2= "320" />
  <line class="fil0 str0" x1="161" y1="386" x2="161" y2= "319" />
  <line class="fil0 str0" x1="189" y1="375" x2="189" y2= "332" />
  <line class="fil0 str0" x1="189" y1="352" x2="220" y2= "352" />
  <line class="fil0 str0" x1="218" y1="381" x2="218" y2= "419" />
  <line class="fil0 str0" x1="218" y1="240" x2="218" y2= "320" />
  <path class="fil1" d="M54 265l1 0 1 0 1 1 1 0 1 0 0 0 0 0 1 1 1 0 1 0 0 1 1 0 1 0 0 0 1 1 0 0 1 1 0 0 0 1 0 1 1 0 0 1 1 1 0 1 0 0 1 1 0 0 0 1 0 1 0 1 0 0 0 1 0 0 0 1 0 1 0 1 0 0 0 0 0 1 -1 1 0 1 0 1 -1 0 0 1 -1 1 0 0 0 1 0 0 -1 0 0 1 -1 0 0 1 -1 0 -1 1 0 0 -1 1 -1 0 -1 0 0 0 0 1 -1 0 -1 0 -1 0 -1 0 -1 0 0 0 0 0 -1 0 -1 0 -1 0 0 0 -1 -1 0 0 -1 0 -1 0 -1 -1 0 0 -1 -1 -1 0 0 -1 -1 0 0 -1 0 0 -1 0 0 -1 -1 0 0 -1 0 -1 -1 0 0 -1 0 -1 -1 -1 0 -1 0 0 0 0 0 -1 0 -1 0 -1 0 0 0 -1 0 0 0 -1 0 -1 0 -1 0 0 1 -1 0 0 0 -1 1 -1 0 -1 0 0 1 -1 0 -1 1 0 0 -1 0 0 1 -1 0 0 1 0 1 0 0 -1 1 0 1 0 1 -1 0 0 1 0 0 0 1 0 1 -1 1 0 0 0 0 0zm62 18l-62 0 0 -7 62 0 0 7z"/>
  <g id="_2499398764448">
   <g transform="matrix(0.999998 0 0 0.999998 -744.746 -1297.44)">
    <text x="988" y="1822"  class="fil2 fnt0">GND</text>
   </g>
  </g>
  <path class="fil1" d="M226 280c0,4 -4,8 -8,8 -5,0 -8,-4 -8,-8 0,-4 3,-8 8,-8 4,0 8,4 8,8z"/>
  <path class="fil3 str0" d="M226 280c0,4 -4,8 -8,8 -5,0 -8,-4 -8,-8 0,-4 3,-8 8,-8 4,0 8,4 8,8z"/>
  <path class="fil1" d="M125 280c0,4 -3,8 -8,8 -4,0 -9,-4 -9,-8 0,-5 5,-9 9,-9 5,0 8,4 8,9z"/>
  <path class="fil3 str0" d="M125 280c0,4 -3,8 -8,8 -4,0 -9,-4 -9,-8 0,-5 5,-9 9,-9 5,0 8,4 8,9z"/>
  <line class="fil3 str0" x1="990" y1="562" x2="956" y2= "562" />
  <line class="fil3 str0" x1="907" y1="426" x2="907" y2= "509" />
  <line class="fil3 str0" x1="907" y1="411" x2="907" y2= "426" />
  <line class="fil3 str0" x1="903" y1="411" x2="959" y2= "411" />
  <line class="fil3 str0" x1="903" y1="505" x2="962" y2= "505" />
  <line class="fil3 str0" x1="892" y1="411" x2="892" y2= "509" />
  <line class="fil3 str0" x1="925" y1="427" x2="925" y2= "490" />
  <line class="fil3 str0" x1="925" y1="459" x2="962" y2= "459" />
  <line class="fil3 str0" x1="959" y1="459" x2="959" y2= "393" />
  <line class="fil3 str0" x1="959" y1="397" x2="959" y2= "383" />
  <line class="fil3 str0" x1="959" y1="541" x2="959" y2= "505" />
  <path class="fil3 str1" d="M868 458c0,-6 5,-9 10,-9 4,0 9,3 9,9 0,5 -5,9 -9,9 -5,0 -10,-4 -10,-9z"/>
  <line class="fil3 str0" x1="868" y1="458" x2="845" y2= "458" />
  <line class="fil3 str0" x1="907" y1="704" x2="907" y2= "607" />
  <line class="fil3 str0" x1="903" y1="702" x2="962" y2= "702" />
  <line class="fil3 str0" x1="903" y1="608" x2="962" y2= "608" />
  <line class="fil3 str0" x1="892" y1="704" x2="892" y2= "607" />
  <line class="fil3 str0" x1="925" y1="688" x2="925" y2= "625" />
  <line class="fil3 str0" x1="925" y1="655" x2="962" y2= "655" />
  <line class="fil3 str0" x1="959" y1="658" x2="959" y2= "724" />
  <line class="fil3 str0" x1="959" y1="702" x2="959" y2= "732" />
  <line class="fil3 str0" x1="959" y1="528" x2="959" y2= "608" />
  <line class="fil3 str0" x1="892" y1="657" x2="846" y2= "657" />
  <line class="fil3 str0" x1="849" y1="659" x2="849" y2= "458" />
  <path class="fil1" d="M964 562c0,5 -3,8 -8,8 -4,0 -8,-3 -8,-8 0,-4 4,-7 8,-7 5,0 8,3 8,7z"/>
  <path class="fil3 str0" d="M964 562c0,5 -3,8 -8,8 -4,0 -8,-3 -8,-8 0,-4 4,-7 8,-7 5,0 8,3 8,7z"/>
  <path class="fil1" d="M857 562c0,5 -4,8 -8,8 -5,0 -8,-3 -8,-8 0,-4 3,-7 8,-7 4,0 8,3 8,7z"/>
  <path class="fil3 str0" d="M857 562c0,5 -4,8 -8,8 -5,0 -8,-3 -8,-8 0,-4 3,-7 8,-7 4,0 8,3 8,7z"/>
  <g id="_2499398777696">
   <g transform="matrix(0.999998 0 0 0.999998 11.1294 -1254.78)">
    <text x="988" y="1822"  class="fil4 fnt1">out</text>
   </g>
  </g>
  <line class="fil0 str0" x1="517" y1="280" x2="220" y2= "280" />
  <line class="fil0 str0" x1="632" y1="280" x2="697" y2= "280" />
  <polygon class="fil0 str0" points="518,294 517,264 635,263 635,294 "/>
  <line class="fil0 str0" x1="606" y1="326" x2="545" y2= "244" />
  <polygon class="fil1" points="563,237 530,224 534,258 "/>
  <g id="_2499398779392">
   <g transform="matrix(1.50026 -0.00244004 0.00162003 0.999997 -836.313 -956.701)">
    <text x="988" y="1822"  class="fil2 fnt0">-</text>
   </g>
  </g>
  <line class="fil0 str0" x1="174" y1="482" x2="174" y2= "414" />
  <line class="fil0 str0" x1="171" y1="480" x2="220" y2= "480" />
  <line class="fil0 str0" x1="171" y1="415" x2="220" y2= "415" />
  <line class="fil0 str0" x1="161" y1="482" x2="161" y2= "414" />
  <line class="fil0 str0" x1="189" y1="470" x2="189" y2= "427" />
  <line class="fil0 str0" x1="189" y1="448" x2="220" y2= "448" />
  <g id="_2499398783744">
   <path class="fil1" d="M203 507l0 -1 0 -1 0 -1 0 0 0 0 0 -1 1 -1 0 -1 0 0 0 -1 0 -1 0 0 1 -1 0 -1 1 0 1 -1 0 0 1 0 0 -1 1 0 1 0 0 -1 1 0 0 -1 1 0 0 0 1 0 1 -1 1 0 1 0 1 0 1 0 0 0 0 0 0 0 1 0 1 0 1 1 1 0 0 0 1 0 1 1 1 0 0 1 1 0 0 0 0 1 1 0 0 0 1 1 1 0 0 1 1 1 0 0 0 1 1 1 0 0 0 1 1 1 0 1 0 0 0 0 0 1 0 1 0 1 0 0 0 1 0 1 0 1 0 0 0 1 0 0 -1 1 0 1 0 0 -1 1 0 1 0 0 -1 1 0 1 -1 0 -1 1 0 0 -1 0 0 1 0 0 -1 0 0 1 -1 0 -1 1 -1 0 0 0 -1 0 -1 1 -1 0 -1 0 0 0 0 0 0 0 -1 0 -1 0 -1 0 -1 0 -1 -1 -1 0 0 0 -1 0 0 -1 -1 0 0 -1 -1 0 -1 0 0 -1 -1 0 0 0 -1 -1 -1 0 0 -1 -1 -1 0 0 0 -1 0 -1 0 0 0 -1 -1 -1 0 0 0 -1 0 0 0 -1 0 -1 0 -1 0 0zm18 -57l0 57 -8 0 0 -57 8 0z"/>
  </g>
  <line class="fil3 str0" x1="161" y1="449" x2="114" y2= "449" />
  <line class="fil3 str0" x1="159" y1="352" x2="117" y2= "352" />
  <line class="fil3 str0" x1="402" y1="106" x2="402" y2= "187" />
  <line class="fil3 str0" x1="402" y1="90" x2="402" y2= "106" />
  <line class="fil3 str0" x1="398" y1="91" x2="454" y2= "91" />
  <line class="fil3 str0" x1="398" y1="184" x2="455" y2= "184" />
  <line class="fil3 str0" x1="388" y1="90" x2="388" y2= "187" />
  <line class="fil3 str0" x1="420" y1="107" x2="420" y2= "169" />
  <line class="fil3 str0" x1="420" y1="137" x2="457" y2= "137" />
  <line class="fil3 str0" x1="454" y1="137" x2="454" y2= "72" />
  <g id="_2499398735936">
   <path class="fil1" d="M468 15l0 1 0 1 0 0 0 1 0 0 0 1 0 1 0 0 -1 1 0 1 0 1 -1 0 0 1 -1 1 0 0 -1 1 0 0 -1 0 -1 0 0 1 -1 0 0 1 0 0 -1 1 -1 0 -1 0 -1 0 0 1 -1 0 -1 0 -1 0 0 0 0 0 -1 0 -1 0 0 0 -1 0 -1 -1 -1 0 -1 0 0 0 -1 -1 0 0 -1 -1 0 0 -1 -1 -1 0 0 0 -1 0 0 -1 -1 0 0 -1 -1 -1 0 0 -1 -1 0 -1 0 -1 -1 0 0 -1 0 -1 0 0 0 -1 0 0 0 -1 0 -1 0 0 0 -1 0 -1 0 -1 0 0 0 -1 0 0 0 -1 1 -1 0 0 0 -1 1 -1 0 -1 1 0 0 -1 1 0 0 -1 1 0 0 0 1 -1 1 0 0 -1 1 0 0 0 1 -1 0 0 1 0 1 0 1 -1 1 0 0 0 1 0 1 0 0 0 0 0 1 0 1 0 1 0 0 1 1 0 1 0 1 0 1 1 0 0 0 0 1 1 0 0 1 1 1 0 0 0 1 1 0 0 1 1 0 0 1 1 0 1 0 1 1 0 0 1 0 1 0 0 0 1 0 0 0 1 0 1 0 1 0 0zm-18 61l0 -61 7 0 0 61 -7 0z"/>
  </g>
  <path class="fil3 str1" d="M363 137c0,-5 4,-9 10,-9 5,0 8,4 8,9 0,5 -3,9 -8,9 -6,0 -10,-4 -10,-9z"/>
  <line class="fil3 str0" x1="363" y1="137" x2="340" y2= "137" />
  <g id="_2499398760128">
   <g transform="matrix(0.999998 0 0 0.999998 -502.791 -1785.46)">
    <text x="988" y="1822"  class="fil5 fnt0">VDD</text>
   </g>
  </g>
  <line class="fil0 str0" x1="749" y1="104" x2="749" y2= "186" />
  <line class="fil0 str0" x1="749" y1="88" x2="749" y2= "104" />
  <line class="fil0 str0" x1="753" y1="89" x2="697" y2= "89" />
  <line class="fil0 str0" x1="753" y1="183" x2="694" y2= "183" />
  <line class="fil0 str0" x1="764" y1="88" x2="764" y2= "186" />
  <line class="fil0 str0" x1="731" y1="105" x2="731" y2= "167" />
  <line class="fil0 str0" x1="731" y1="136" x2="694" y2= "136" />
  <line class="fil0 str0" x1="697" y1="136" x2="697" y2= "71" />
  <line class="fil0 str0" x1="697" y1="74" x2="697" y2= "61" />
  <line class="fil0 str0" x1="697" y1="300" x2="697" y2= "183" />
  <path class="fil0 str1" d="M788 136c0,-6 -4,-10 -10,-10 -4,0 -8,4 -8,10 0,5 4,8 8,8 6,0 10,-3 10,-8z"/>
  <line class="fil0 str0" x1="788" y1="136" x2="811" y2= "136" />
  <line class="fil0 str0" x1="401" y1="467" x2="401" y2= "370" />
  <line class="fil0 str0" x1="397" y1="466" x2="456" y2= "466" />
  <line class="fil0 str0" x1="397" y1="371" x2="456" y2= "371" />
  <line class="fil0 str0" x1="386" y1="467" x2="386" y2= "370" />
  <line class="fil0 str0" x1="419" y1="452" x2="419" y2= "388" />
  <line class="fil0 str0" x1="419" y1="418" x2="456" y2= "418" />
  <line class="fil0 str0" x1="453" y1="423" x2="453" y2= "487" />
  <line class="fil0 str0" x1="453" y1="466" x2="453" y2= "496" />
  <line class="fil0 str0" x1="453" y1="181" x2="453" y2= "371" />
  <line class="fil0 str0" x1="386" y1="420" x2="340" y2= "420" />
  <line class="fil0 str0" x1="749" y1="1005" x2="749" y2= "908" />
  <line class="fil0 str0" x1="753" y1="1004" x2="694" y2= "1004" />
  <line class="fil0 str0" x1="753" y1="910" x2="694" y2= "910" />
  <line class="fil0 str0" x1="764" y1="1006" x2="764" y2= "908" />
  <line class="fil0 str0" x1="731" y1="989" x2="731" y2= "927" />
  <line class="fil0 str0" x1="731" y1="957" x2="694" y2= "957" />
  <line class="fil0 str0" x1="697" y1="960" x2="697" y2= "1026" />
  <line class="fil0 str0" x1="697" y1="1004" x2="697" y2= "1034" />
  <line class="fil0 str0" x1="697" y1="284" x2="697" y2= "913" />
  <line class="fil0 str0" x1="764" y1="959" x2="810" y2= "959" />
  <path class="fil1" d="M461 278c0,5 -3,8 -7,8 -5,0 -8,-3 -8,-8 0,-4 3,-8 8,-8 4,0 7,4 7,8z"/>
  <path class="fil3 str0" d="M461 278c0,5 -3,8 -7,8 -5,0 -8,-3 -8,-8 0,-4 3,-8 8,-8 4,0 7,4 7,8z"/>
  <path class="fil1" d="M705 278c0,5 -3,8 -8,8 -4,0 -8,-3 -8,-8 0,-4 4,-8 8,-8 5,0 8,4 8,8z"/>
  <path class="fil3 str0" d="M705 278c0,5 -3,8 -8,8 -4,0 -8,-3 -8,-8 0,-4 4,-8 8,-8 5,0 8,4 8,8z"/>
  <line class="fil3 str0" x1="632" y1="813" x2="696" y2= "813" />
  <g id="_2499068873600">
   <g transform="matrix(0.00162003 0.999997 -0.999997 0.00162003 2316.44 -148.533)">
    <text x="988" y="1822"  class="fil2 fnt0">+</text>
   </g>
  </g>
  <line class="fil0 str0" x1="406" y1="642" x2="406" y2= "724" />
  <line class="fil0 str0" x1="406" y1="626" x2="406" y2= "642" />
  <line class="fil0 str0" x1="402" y1="627" x2="458" y2= "627" />
  <line class="fil0 str0" x1="402" y1="720" x2="460" y2= "720" />
  <line class="fil0 str0" x1="392" y1="626" x2="392" y2= "724" />
  <line class="fil0 str0" x1="424" y1="643" x2="424" y2= "705" />
  <line class="fil0 str0" x1="424" y1="673" x2="461" y2= "673" />
  <line class="fil0 str0" x1="458" y1="673" x2="458" y2= "608" />
  <line class="fil0 str0" x1="458" y1="612" x2="458" y2= "598" />
  <path class="fil0 str1" d="M367 673c0,-5 5,-9 10,-9 5,0 9,4 9,9 0,6 -4,9 -9,9 -5,0 -10,-3 -10,-9z"/>
  <line class="fil0 str0" x1="367" y1="673" x2="344" y2= "673" />
  <g transform="matrix(0.999998 0 0 0.999998 -555.188 -1233.17)">
   <text x="988" y="1822"  class="fil4 fnt0">V</text>
  </g>
  <g transform="matrix(0.999998 0 0 0.999998 -537.563 -1230.51)">
   <text x="988" y="1822"  class="fil4 fnt0">p</text>
  </g>
  <g transform="matrix(0.999998 0 0 0.999998 -522.578 -1230.51)">
   <text x="988" y="1822"  class="fil4 fnt0">r</text>
  </g>
  <g transform="matrix(0.999998 0 0 0.999998 -512.877 -1230.51)">
   <text x="988" y="1822"  class="fil4 fnt0">o</text>
  </g>
  <g transform="matrix(0.999998 0 0 0.999998 -497.891 -1230.51)">
   <text x="988" y="1822"  class="fil4 fnt0">g</text>
  </g>
  <line class="fil0 str0" x1="405" y1="1004" x2="405" y2= "906" />
  <line class="fil0 str0" x1="402" y1="1002" x2="461" y2= "1002" />
  <line class="fil0 str0" x1="402" y1="908" x2="461" y2= "908" />
  <line class="fil0 str0" x1="390" y1="1004" x2="390" y2= "906" />
  <line class="fil0 str0" x1="424" y1="988" x2="424" y2= "924" />
  <line class="fil0 str0" x1="424" y1="954" x2="461" y2= "954" />
  <line class="fil0 str0" x1="457" y1="959" x2="457" y2= "1023" />
  <g id="_2499431176960">
   <path class="fil1" d="M446 1055l0 0 0 -1 0 0 0 -1 0 0 0 -1 0 -1 0 0 1 -1 0 0 0 -1 0 0 1 -1 0 0 1 0 0 0 0 -1 1 0 0 0 1 -1 0 0 1 0 0 -1 1 0 1 0 0 0 0 -1 0 0 1 0 1 0 0 0 1 0 0 0 1 0 0 0 1 0 0 0 1 0 1 1 0 0 0 0 0 0 1 1 0 0 1 0 0 1 1 0 0 0 1 1 0 0 1 0 0 0 0 1 1 0 0 1 0 0 1 1 0 0 0 1 0 1 0 0 0 1 0 0 0 1 0 0 0 0 0 0 0 1 0 1 0 0 0 1 0 0 0 1 0 1 -1 0 0 1 0 0 -1 1 0 0 0 0 -1 0 0 1 -1 0 0 0 -1 1 0 0 -1 0 0 1 -1 0 0 0 0 1 0 0 -1 0 -1 0 0 0 -1 0 0 0 -1 0 0 0 -1 0 0 0 -1 0 -1 0 0 0 0 0 0 0 -1 -1 -1 0 0 0 -1 -1 0 0 -1 0 0 -1 -1 0 0 0 0 -1 -1 0 0 0 -1 0 0 -1 0 0 0 -1 -1 0 0 -1 0 -1 0 0 0 -1 0 0 0 -1 0 -1 0 0 0 0zm15 -53l0 53 -7 0 0 -53 7 0z"/>
  </g>
  <line class="fil3 str0" x1="457" y1="719" x2="457" y2= "908" />
  <line class="fil3 str0" x1="390" y1="957" x2="344" y2= "957" />
  <g id="_2499431180800">
   <g transform="matrix(0.999998 0 0 0.999998 -512.456 -754.729)">
    <text x="988" y="1822"  class="fil5 fnt0">GND</text>
   </g>
  </g>
  <path class="fil1" d="M466 814c0,5 -4,8 -8,8 -4,0 -8,-3 -8,-8 0,-4 4,-8 8,-8 4,0 8,4 8,8z"/>
  <path class="fil3 str0" d="M466 814c0,5 -4,8 -8,8 -4,0 -8,-3 -8,-8 0,-4 4,-8 8,-8 4,0 8,4 8,8z"/>
  <path class="fil1" d="M705 814c0,5 -3,8 -8,8 -4,0 -8,-3 -8,-8 0,-4 4,-8 8,-8 5,0 8,4 8,8z"/>
  <path class="fil3 str0" d="M705 814c0,5 -3,8 -8,8 -4,0 -8,-3 -8,-8 0,-4 4,-8 8,-8 5,0 8,4 8,8z"/>
  <line class="fil3 str0" x1="849" y1="562" x2="702" y2= "562" />
  <g id="_2499431187744">
   <g transform="matrix(0.999998 0 0 0.999998 -696.713 -1363.13)">
    <text x="988" y="1822"  class="fil4 fnt0">WL[0]</text>
   </g>
  </g>
  <line class="fil0 str2" x1="303" y1="90" x2="366" y2= "90" />
  <g id="_2499431192544">
   <g transform="matrix(0.999998 0 0 0.999998 -690.668 -1702.91)">
    <text x="988" y="1822"  class="fil4 fnt0">BL[0]</text>
   </g>
  </g>
  <line class="fil0 str3" x1="296" y1="631" x2="365" y2= "631" />
  <g id="_2499436491952">
   <g transform="matrix(0.999998 0 0 0.999998 -692.47 -1161.99)">
    <text x="988" y="1822"  class="fil4 fnt0">BL[1]</text>
   </g>
  </g>
  <g id="_2499436495120">
   <g transform="matrix(0.999998 0 0 0.999998 -695.735 -825.842)">
    <text x="988" y="1822"  class="fil4 fnt0">WL[1]</text>
   </g>
  </g>
  <g id="_2499436521200">
   <g transform="matrix(0.999998 0 0 0.999998 -168.308 -858.172)">
    <text x="988" y="1822"  class="fil4 fnt0">WL[2]</text>
   </g>
  </g>
  <line class="fil0 str2" x1="815" y1="112" x2="886" y2= "112" />
  <g id="_2499436525680">
   <g transform="matrix(0.999998 0 0 0.999998 -167.921 -1682.39)">
    <text x="988" y="1822"  class="fil4 fnt0">BL[2]</text>
   </g>
  </g>
  <line class="fil0 str0" x1="174" y1="177" x2="174" y2= "245" />
  <line class="fil0 str0" x1="172" y1="179" x2="221" y2= "179" />
  <line class="fil0 str0" x1="172" y1="244" x2="221" y2= "244" />
  <line class="fil0 str0" x1="162" y1="177" x2="162" y2= "245" />
  <line class="fil0 str0" x1="190" y1="188" x2="190" y2= "232" />
  <line class="fil0 str0" x1="190" y1="211" x2="221" y2= "211" />
  <line class="fil0 str0" x1="218" y1="179" x2="218" y2= "148" />
  <line class="fil0 str0" x1="143" y1="114" x2="114" y2= "114" />
  <line class="fil0 str0" x1="174" y1="82" x2="174" y2= "150" />
  <line class="fil0 str0" x1="172" y1="83" x2="221" y2= "83" />
  <line class="fil0 str0" x1="172" y1="148" x2="221" y2= "148" />
  <line class="fil0 str0" x1="162" y1="82" x2="162" y2= "150" />
  <line class="fil0 str0" x1="190" y1="92" x2="190" y2= "136" />
  <line class="fil0 str0" x1="190" y1="115" x2="221" y2= "115" />
  <line class="fil0 str0" x1="218" y1="114" x2="218" y2= "68" />
  <line class="fil0 str0" x1="218" y1="83" x2="218" y2= "62" />
  <line class="fil0 str0" x1="143" y1="210" x2="118" y2= "210" />
  <path class="fil0 str1" d="M143 212c0,4 3,7 8,7 3,0 7,-3 7,-7 0,-4 -4,-8 -7,-8 -5,0 -8,4 -8,8z"/>
  <path class="fil0 str1" d="M143 115c0,5 3,8 8,8 3,0 7,-3 7,-8 0,-3 -4,-7 -7,-7 -5,0 -8,4 -8,7z"/>
  <g id="_2499436481072">
   <g transform="matrix(0.999998 0 0 0.999998 -757.853 -1462.12)">
    <text x="988" y="1822"  class="fil2 fnt0">GND</text>
   </g>
  </g>
  <g id="_2499436484368">
   <g transform="matrix(0.999998 0 0 0.999998 -762.22 -1602.93)">
    <text x="988" y="1822"  class="fil2 fnt0">VDD</text>
   </g>
  </g>
  <line class="fil0 str0" x1="118" y1="356" x2="118" y2= "207" />
  <g id="_2499436488176">
   <g transform="matrix(0.999998 0 0 0.999998 -919.052 -1699.22)">
    <text x="988" y="1822"  class="fil6 fnt0">EN</text>
   </g>
  </g>
  <g id="_2499436487376">
   <g transform="matrix(0.999998 0 0 0.999998 -919.052 -1367.66)">
    <text x="988" y="1822"  class="fil6 fnt0">EN</text>
   </g>
  </g>
  <line class="fil0 str4" x1="69" y1="96" x2="105" y2= "96" />
  <g id="_2499436489968">
   <g transform="matrix(1.50026 -0.00244004 0.00162003 0.999997 -849.736 -1501.62)">
    <text x="988" y="1822"  class="fil2 fnt0">-</text>
   </g>
  </g>
  <line class="fil0 str0" x1="174" y1="921" x2="174" y2= "853" />
  <line class="fil0 str0" x1="172" y1="920" x2="221" y2= "920" />
  <line class="fil0 str0" x1="172" y1="855" x2="221" y2= "855" />
  <line class="fil0 str0" x1="162" y1="921" x2="162" y2= "853" />
  <line class="fil0 str0" x1="190" y1="910" x2="190" y2= "866" />
  <line class="fil0 str0" x1="190" y1="887" x2="221" y2= "887" />
  <line class="fil0 str0" x1="218" y1="916" x2="218" y2= "953" />
  <line class="fil0 str0" x1="218" y1="775" x2="218" y2= "855" />
  <path class="fil1" d="M54 800l1 0 1 0 0 0 1 0 1 0 1 1 0 0 0 0 1 0 1 1 1 0 0 1 1 0 1 1 0 0 1 1 0 0 1 0 0 1 0 0 0 1 1 1 0 0 1 1 0 1 0 1 0 1 1 0 0 0 0 1 0 1 0 1 0 0 0 1 0 0 0 1 0 1 -1 1 0 1 0 0 0 0 -1 1 0 1 -1 1 0 0 0 1 0 1 -1 0 0 1 -1 0 0 1 -1 0 -1 0 0 0 -1 1 -1 0 -1 0 0 1 0 0 -1 0 -1 0 -1 0 0 1 -1 0 -1 0 0 0 -1 0 -1 0 -1 -1 0 0 0 0 -1 0 -1 0 -1 -1 0 0 -1 0 -1 -1 -1 0 0 0 -1 0 0 -1 0 0 -1 -1 0 0 -1 -1 0 -1 -1 0 0 -1 0 -1 -1 -1 0 0 0 0 0 -1 -1 -1 0 -1 0 -1 0 0 0 -1 0 0 0 -1 0 -1 0 -1 0 0 1 0 0 -1 0 -1 0 -1 1 -1 0 0 0 -1 1 -1 0 0 1 -1 0 0 1 0 0 -1 0 0 1 -1 0 0 1 -1 1 0 1 -1 0 0 1 0 1 0 1 -1 0 0 0 0 1 0 1 0 1 0 0 0zm58 19l-58 0 0 -7 58 0 0 7z"/>
  <path class="fil1" d="M226 813c0,5 -3,8 -8,8 -4,0 -7,-3 -7,-8 0,-4 3,-8 7,-8 5,0 8,4 8,8z"/>
  <path class="fil3 str0" d="M226 813c0,5 -3,8 -8,8 -4,0 -7,-3 -7,-8 0,-4 3,-8 7,-8 5,0 8,4 8,8z"/>
  <path class="fil1" d="M126 814c0,5 -3,8 -8,8 -4,0 -8,-3 -8,-8 0,-4 4,-8 8,-8 5,0 8,4 8,8z"/>
  <path class="fil3 str0" d="M126 814c0,5 -3,8 -8,8 -4,0 -8,-3 -8,-8 0,-4 4,-8 8,-8 5,0 8,4 8,8z"/>
  <line class="fil3 str0" x1="174" y1="1016" x2="174" y2= "949" />
  <line class="fil3 str0" x1="172" y1="1015" x2="221" y2= "1015" />
  <line class="fil3 str0" x1="172" y1="950" x2="221" y2= "950" />
  <line class="fil3 str0" x1="162" y1="1017" x2="162" y2= "949" />
  <line class="fil3 str0" x1="190" y1="1005" x2="190" y2= "961" />
  <line class="fil3 str0" x1="190" y1="982" x2="221" y2= "982" />
  <line class="fil3 str0" x1="218" y1="985" x2="218" y2= "1031" />
  <line class="fil3 str0" x1="162" y1="983" x2="116" y2= "983" />
  <line class="fil3 str0" x1="160" y1="887" x2="118" y2= "887" />
  <line class="fil3 str0" x1="175" y1="712" x2="175" y2= "779" />
  <line class="fil3 str0" x1="173" y1="713" x2="222" y2= "713" />
  <line class="fil3 str0" x1="173" y1="778" x2="222" y2= "778" />
  <line class="fil3 str0" x1="163" y1="711" x2="163" y2= "779" />
  <line class="fil3 str0" x1="191" y1="723" x2="191" y2= "767" />
  <line class="fil3 str0" x1="191" y1="746" x2="222" y2= "746" />
  <line class="fil3 str0" x1="219" y1="713" x2="219" y2= "683" />
  <line class="fil3 str0" x1="145" y1="649" x2="116" y2= "649" />
  <line class="fil3 str0" x1="175" y1="617" x2="175" y2= "684" />
  <line class="fil3 str0" x1="173" y1="618" x2="222" y2= "618" />
  <line class="fil3 str0" x1="173" y1="683" x2="222" y2= "683" />
  <line class="fil3 str0" x1="163" y1="616" x2="163" y2= "684" />
  <line class="fil3 str0" x1="191" y1="628" x2="191" y2= "671" />
  <line class="fil3 str0" x1="191" y1="651" x2="222" y2= "651" />
  <line class="fil3 str0" x1="219" y1="648" x2="219" y2= "603" />
  <line class="fil3 str0" x1="219" y1="618" x2="219" y2= "597" />
  <line class="fil3 str0" x1="144" y1="746" x2="119" y2= "746" />
  <path class="fil3 str1" d="M145 746c0,5 2,8 7,8 4,0 7,-3 7,-8 0,-3 -3,-7 -7,-7 -5,0 -7,4 -7,7z"/>
  <path class="fil3 str1" d="M145 651c0,3 2,7 7,7 4,0 7,-4 7,-7 0,-5 -3,-8 -7,-8 -5,0 -7,3 -7,8z"/>
  <g id="_2499388745264">
   <g transform="matrix(0.999998 0 0 0.999998 -756.824 -927.345)">
    <text x="988" y="1822"  class="fil2 fnt0">GND</text>
   </g>
  </g>
  <g id="_2499388747792">
   <g transform="matrix(0.999998 0 0 0.999998 -790.143 -1234.98)">
    <text x="988" y="1822"  class="fil2 fnt0">VDD</text>
   </g>
  </g>
  <g id="_2499388746192">
   <g transform="matrix(0.999998 0 0 0.999998 -753.787 -1068.16)">
    <text x="988" y="1822"  class="fil2 fnt0">VDD</text>
   </g>
  </g>
  <line class="fil0 str0" x1="119" y1="891" x2="119" y2= "742" />
  <g id="_2499388759376">
   <g transform="matrix(0.999998 0 0 0.999998 -919.052 -1164.45)">
    <text x="988" y="1822"  class="fil6 fnt0">EN</text>
   </g>
  </g>
  <g id="_2499388759440">
   <g transform="matrix(0.999998 0 0 0.999998 -919.052 -832.891)">
    <text x="988" y="1822"  class="fil6 fnt0">EN</text>
   </g>
  </g>
  <line class="fil0 str0" x1="218" y1="813" x2="517" y2= "813" />
  <polygon class="fil0 str0" points="517,828 517,798 634,798 635,828 "/>
  <line class="fil0 str0" x1="606" y1="856" x2="544" y2= "774" />
  <polygon class="fil1" points="562,767 529,754 534,788 "/>
  <g id="_2499448824304">
   <g transform="matrix(0.00162003 0.999997 -0.999997 0.00162003 2316.44 -688.668)">
    <text x="988" y="1822"  class="fil2 fnt0">+</text>
   </g>
  </g>
  <path class="fil1" d="M705 562c0,5 -3,8 -8,8 -4,0 -8,-3 -8,-8 0,-4 4,-7 8,-7 5,0 8,3 8,7z"/>
  <path class="fil3 str0" d="M705 562c0,5 -3,8 -8,8 -4,0 -8,-3 -8,-8 0,-4 4,-7 8,-7 5,0 8,3 8,7z"/>
  <g id="_2499448825136">
   <g transform="matrix(0.999998 0 0 0.999998 -43.5895 -1447.22)">
    <text x="988" y="1822"  class="fil2 fnt0">VDD</text>
   </g>
  </g>
  <g id="_2499448826192">
   <g transform="matrix(0.999998 0 0 0.999998 -54.5576 -1068)">
    <text x="988" y="1822"  class="fil2 fnt0">GND</text>
   </g>
  </g>
  <polyline class="fil0 str5" points="218,62 454,62 697,62 "/>
  <line class="fil0 str4" x1="72" y1="629" x2="108" y2= "629" />
  <polyline class="fil0 str5" points="215,1031 452,1031 697,1031 "/>
  <polyline class="fil0 str5" points="215,493 334,493 456,493 "/>
  <g id="_2499448826256">
   <g transform="matrix(0.972792 0 0 0.999998 -961.345 -1489.2)">
    <text x="988" y="1822"  class="fil6 fnt2">IN_0</text>
   </g>
  </g>
  <g id="_2499448827824">
   <g transform="matrix(0.999998 0 0 0.999998 -989.133 -950.66)">
    <text x="988" y="1822"  class="fil6 fnt0">IN_1</text>
   </g>
  </g>
  <text x="164" y="1159"  class="fil7 fnt3">4T1R Multiplexer</text>
 </g>
</svg>
