<?xml version="1.0" encoding="UTF-8" standalone="no"?>
<!-- Creator: CorelDRAW X8 -->

<svg
   xml:space="preserve"
   width="0.505976in"
   height="0.948894in"
   version="1.1"
   style="shape-rendering:geometricPrecision; text-rendering:geometricPrecision; image-rendering:optimizeQuality; fill-rule:evenodd; clip-rule:evenodd"
   viewBox="0 0 126 237"
   id="svg70"
   sodipodi:docname="1T1R.svg"
   inkscape:version="1.1 (c68e22c387, 2021-05-23)"
   xmlns:inkscape="http://www.inkscape.org/namespaces/inkscape"
   xmlns:sodipodi="http://sodipodi.sourceforge.net/DTD/sodipodi-0.dtd"
   xmlns="http://www.w3.org/2000/svg"
   xmlns:svg="http://www.w3.org/2000/svg"><sodipodi:namedview
   id="namedview72"
   pagecolor="#ffffff"
   bordercolor="#666666"
   borderopacity="1.0"
   inkscape:pageshadow="2"
   inkscape:pageopacity="0.0"
   inkscape:pagecheckerboard="0"
   inkscape:document-units="in"
   showgrid="false"
   inkscape:zoom="12.916635"
   inkscape:cx="25.432321"
   inkscape:cy="36.503316"
   inkscape:window-width="1920"
   inkscape:window-height="1017"
   inkscape:window-x="-8"
   inkscape:window-y="-8"
   inkscape:window-maximized="1"
   inkscape:current-layer="Layer_x0020_1" />
 <defs
   id="defs4"><marker
   style="overflow:visible"
   id="DotS"
   refX="0.0"
   refY="0.0"
   orient="auto"
   inkscape:stockid="DotS"
   inkscape:isstock="true"><path
     transform="scale(0.2) translate(7.4, 1)"
     style="fill-rule:evenodd;fill:context-stroke;stroke:context-stroke;stroke-width:1.0pt"
     d="M -2.5,-1.0 C -2.5,1.7600000 -4.7400000,4.0 -7.5,4.0 C -10.260000,4.0 -12.5,1.7600000 -12.5,-1.0 C -12.5,-3.7600000 -10.260000,-6.0 -7.5,-6.0 C -4.7400000,-6.0 -2.5,-3.7600000 -2.5,-1.0 z "
     id="path1319" /></marker>
  <style
   type="text/css"
   id="style2">
   <![CDATA[
    .str2 {stroke:#373435;stroke-width:3.46946}
    .str1 {stroke:#373435;stroke-width:3.47044}
    .str0 {stroke:#373435;stroke-width:1.73522}
    .fil1 {fill:none}
    .fil3 {fill:none;fill-rule:nonzero}
    .fil4 {fill:#373435}
    .fil0 {fill:#FEF6D4}
    .fil2 {fill:#373435;fill-rule:nonzero}
    .fnt0 {font-weight:normal;font-size:17.3512px;font-family:'Myriad Pro'}
    .fnt1 {font-style:italic;font-weight:bold;font-size:13.8808px;font-family:'Lato'}
    .fnt2 {font-style:italic;font-weight:bold;font-size:17.3512px;font-family:'Lato'}
   ]]>
  </style>
 <marker
   style="overflow:visible"
   id="DotS-8"
   refX="0"
   refY="0"
   orient="auto"
   inkscape:stockid="DotS"
   inkscape:isstock="true"><path
     transform="matrix(0.2,0,0,0.2,1.48,0.2)"
     style="fill:context-stroke;fill-rule:evenodd;stroke:context-stroke;stroke-width:1pt"
     d="m -2.5,-1 c 0,2.76 -2.24,5 -5,5 -2.76,0 -5,-2.24 -5,-5 0,-2.76 2.24,-5 5,-5 2.76,0 5,2.24 5,5 z"
     id="path1319-3" /></marker><marker
   style="overflow:visible"
   id="DotS-6"
   refX="0"
   refY="0"
   orient="auto"
   inkscape:stockid="DotS"
   inkscape:isstock="true"><path
     transform="matrix(0.2,0,0,0.2,1.48,0.2)"
     style="fill:context-stroke;fill-rule:evenodd;stroke:context-stroke;stroke-width:1pt"
     d="m -2.5,-1 c 0,2.76 -2.24,5 -5,5 -2.76,0 -5,-2.24 -5,-5 0,-2.76 2.24,-5 5,-5 2.76,0 5,2.24 5,5 z"
     id="path1319-1" /></marker></defs>
 <g
   id="Layer_x0020_1"
   inkscape:label="Layer 1"
   inkscape:groupmode="layer">
  <metadata
   id="CorelCorpID_0Corel-Layer" />
  <rect
   class="fil0 str0"
   x="27"
   y="20"
   width="79.704102"
   height="180.646"
   id="rect7" />
  <line
   class="fil1 str1"
   x1="48"
   y1="28"
   x2="48"
   y2="74"
   id="line9" />
  <line
   class="fil1 str1"
   x1="46.302135"
   y1="29"
   x2="74"
   y2="29"
   id="line11" />
  <line
   class="fil1 str1"
   x1="46.284855"
   y1="73"
   x2="74"
   y2="73"
   id="line13" />
  <line
   class="fil1 str1"
   x1="41"
   y1="28"
   x2="41"
   y2="74"
   id="line15" />
  <line
   class="fil1 str1"
   x1="56"
   y1="36"
   x2="56"
   y2="65"
   id="line17" />
  <line
   class="fil1 str1"
   x1="56"
   y1="50"
   x2="74"
   y2="50"
   id="line19" />
  
  <line
   class="fil3 str1"
   x1="72.213638"
   y1="113.07121"
   x2="72.213638"
   y2="73.071213"
   id="line24" /><line
   class="fil3 str1"
   x1="72"
   y1="29"
   x2="72"
   y2="4.6801763"
   id="line24-8"
   style="clip-rule:evenodd;fill:none;fill-rule:nonzero;stroke:#373435;stroke-width:2.58939;stroke-miterlimit:4;stroke-dasharray:none;marker-end:url(#DotS);image-rendering:optimizeQuality;shape-rendering:geometricPrecision;text-rendering:geometricPrecision" /><line
   class="fil3 str1"
   x1="72"
   y1="183.80371"
   x2="72"
   y2="208.12354"
   id="line24-8-7"
   style="clip-rule:evenodd;fill:none;fill-rule:nonzero;stroke:#373435;stroke-width:2.58939;stroke-miterlimit:4;stroke-dasharray:none;marker-end:url(#DotS-8);image-rendering:optimizeQuality;shape-rendering:geometricPrecision;text-rendering:geometricPrecision" />
  
  
  <polygon
   class="fil3 str1"
   points="63,183 63,113 81,113 81,183 "
   id="polygon32" />
  <g
   id="_2063338991568">
   <g
   transform="rotate(179.90718,157.22742,-176.33923)"
   id="g36">
    <text
   x="253"
   y="-451"
   class="fil4 fnt0"
   id="text34">+</text>
   </g>
  </g>
  <g
   id="_2063338992368">
   <g
   transform="rotate(-90.092819,476.81053,-29.005065)"
   id="g41">
    <text
   x="253"
   y="-451"
   class="fil4 fnt0"
   id="text39">_</text>
   </g>
  </g>
  <line
   class="fil1 str1"
   x1="52"
   y1="180"
   x2="90"
   y2="129"
   id="line44" />
  <polygon
   class="fil2"
   points="97,120 82,126 95,136 "
   id="polygon46" />
  <g
   id="_2063338991728"
   transform="translate(3.703125,-1.4242788)">
   <g
   transform="translate(-253.876,520.313)"
   id="g50">
    <text
   x="253"
   y="-451"
   class="fil4 fnt1"
   id="text48">WL</text>
   </g>
  </g>
  <circle
   class="fil1 str0"
   cx="36"
   cy="50"
   r="4"
   id="circle53" />
  <g
   id="_2063338989616"
   transform="translate(-2.8485577,3.9879808)">
   <g
   transform="translate(-171.614,461.205)"
   id="g57">
    <text
   x="253"
   y="-451"
   class="fil4 fnt1"
   id="text55">VDD</text>
   </g>
  </g>
  <g
   id="_2063338989808">
   <g
   transform="translate(-171.552,666.167)"
   id="g62">
    <text
   x="253"
   y="-451"
   class="fil4 fnt1"
   id="text60">GND</text>
   </g>
  </g>
  <polyline
   class="fil1 str2"
   points="72,29 85,29 85,50 72,50 "
   id="polyline65" />
  <text
   x="16"
   y="237"
   class="fil4 fnt2"
   id="text67">1T1R Structure</text>
 <line
   class="fil3 str1"
   x1="32.231556"
   y1="50.151768"
   x2="7.9117303"
   y2="50.151768"
   id="line24-8-3"
   style="clip-rule:evenodd;fill:none;fill-rule:nonzero;stroke:#373435;stroke-width:2.58939;stroke-miterlimit:4;stroke-dasharray:none;marker-end:url(#DotS-6);image-rendering:optimizeQuality;shape-rendering:geometricPrecision;text-rendering:geometricPrecision" /></g>
</svg>
