<svg version="1.1" viewBox="0.0 0.0 960.0 816.0" fill="none" stroke="none" stroke-linecap="square"
  stroke-miterlimit="10" xmlns:xlink="http://www.w3.org/1999/xlink" xmlns="http://www.w3.org/2000/svg">
  <clipPath id="g100bc2a30b0_2_0.0">
    <path d="m0 0l960.0 0l0 816.0l-960.0 0l0 -816.0z" clip-rule="nonzero" />
  </clipPath>
  <g clip-path="url(#g100bc2a30b0_2_0.0)">
    <path fill="#000000" fill-opacity="0.0" d="m0 1.1889764E-4l960.0 0l0 81.60629l-960.0 0z" fill-rule="evenodd" />
    <path fill="#000000"
      d="m216.46097 54.62727l0 -30.53125l12.96875 0q4.90625 0 7.125 0.828125q2.21875 0.8125 3.546875 2.921875q1.328125 2.09375 1.328125 4.8125q0 3.4375 -2.015625 5.671875q-2.015625 2.234375 -6.046875 2.828125q2.0 1.15625 3.296875 2.5625q1.3125 1.390625 3.515625 4.953125l3.734375 5.953125l-7.375 0l-4.453125 -6.640625q-2.375 -3.5625 -3.25 -4.484375q-0.875 -0.9375 -1.859375 -1.28125q-0.984375 -0.34375 -3.09375 -0.34375l-1.25 0l0 12.75l-6.171875 0zm6.171875 -17.625l4.546875 0q4.4375 0 5.546875 -0.375q1.109375 -0.375 1.734375 -1.28125q0.625 -0.921875 0.625 -2.296875q0 -1.546875 -0.828125 -2.484375q-0.828125 -0.953125 -2.328125 -1.203125q-0.75 -0.109375 -4.5 -0.109375l-4.796875 0l0 7.75zm24.633102 17.625l0 -30.53125l12.968735 0q4.90625 0 7.125 0.828125q2.21875 0.8125 3.546875 2.921875q1.328125 2.09375 1.328125 4.8125q0 3.4375 -2.015625 5.671875q-2.015625 2.234375 -6.046875 2.828125q2.0 1.15625 3.296875 2.5625q1.3125 1.390625 3.515625 4.953125l3.734375 5.953125l-7.375 0l-4.453125 -6.640625q-2.375 -3.5625 -3.25 -4.484375q-0.875 -0.9375 -1.859375 -1.28125q-0.984375 -0.34375 -3.0937347 -0.34375l-1.25 0l0 12.75l-6.171875 0zm6.171875 -17.625l4.5468597 0q4.4375 0 5.546875 -0.375q1.109375 -0.375 1.734375 -1.28125q0.625 -0.921875 0.625 -2.296875q0 -1.546875 -0.828125 -2.484375q-0.828125 -0.953125 -2.328125 -1.203125q-0.75 -0.109375 -4.5 -0.109375l-4.7968597 0l0 7.75zm52.148727 17.625l-6.703125 0l-2.671875 -6.9375l-12.203125 0l-2.515625 6.9375l-6.546875 0l11.890625 -30.53125l6.515625 0l12.234375 30.53125zm-11.359375 -12.078125l-4.203125 -11.328125l-4.125 11.328125l8.328125 0zm14.539368 12.078125l0 -30.53125l9.234375 0l5.53125 20.828125l5.484375 -20.828125l9.25 0l0 30.53125l-5.734375 0l0 -24.03125l-6.0625 24.03125l-5.9375 0l-6.03125 -24.03125l0 24.03125l-5.734375 0zm47.18112 0l0 -30.53125l5.859375 0l0 11.0q2.703125 -3.09375 6.40625 -3.09375q4.046875 0 6.6875 2.9375q2.640625 2.921875 2.640625 8.40625q0 5.65625 -2.703125 8.71875q-2.6875 3.0625 -6.546875 3.0625q-1.890625 0 -3.734375 -0.9375q-1.84375 -0.953125 -3.171875 -2.8125l0 3.25l-5.4375 0zm5.8125 -11.53125q0 3.421875 1.078125 5.078125q1.515625 2.328125 4.046875 2.328125q1.9375 0 3.296875 -1.65625q1.359375 -1.65625 1.359375 -5.21875q0 -3.78125 -1.375 -5.453125q-1.375 -1.6875 -3.515625 -1.6875q-2.109375 0 -3.5 1.640625q-1.390625 1.625 -1.390625 4.96875zm33.30612 4.484375l5.828125 0.984375q-1.125 3.203125 -3.5625 4.890625q-2.421875 1.671875 -6.0625 1.671875q-5.765625 0 -8.53125 -3.765625q-2.1875 -3.03125 -2.1875 -7.625q0 -5.5 2.875 -8.609375q2.875 -3.125 7.265625 -3.125q4.9375 0 7.78125 3.265625q2.859375 3.265625 2.734375 9.984375l-14.65625 0q0.0625 2.609375 1.40625 4.0625q1.359375 1.4375 3.375 1.4375q1.375 0 2.3125 -0.75q0.9375 -0.75 1.421875 -2.421875zm0.328125 -5.90625q-0.0625 -2.546875 -1.3125 -3.859375q-1.25 -1.328125 -3.046875 -1.328125q-1.90625 0 -3.15625 1.390625q-1.25 1.40625 -1.234375 3.796875l8.75 0zm20.723389 -9.171875l0 4.671875l-4.0 0l0 8.90625q0 2.71875 0.109375 3.171875q0.125 0.4375 0.53125 0.734375q0.40625 0.28125 0.984375 0.28125q0.8125 0 2.359375 -0.5625l0.5 4.546875q-2.046875 0.875 -4.625 0.875q-1.578125 0 -2.859375 -0.53125q-1.265625 -0.53125 -1.859375 -1.375q-0.59375 -0.84375 -0.828125 -2.28125q-0.1875 -1.015625 -0.1875 -4.125l0 -9.640625l-2.6875 0l0 -4.671875l2.6875 0l0 -4.390625l5.875 -3.421875l0 7.8125l4.0 0zm8.1892395 22.125l-7.0 -22.125l5.6875 0l4.140625 14.5l3.8125 -14.5l5.640625 0l3.6875 14.5l4.234375 -14.5l5.765625 0l-7.09375 22.125l-5.625 0l-3.8125 -14.21875l-3.75 14.21875l-5.6875 0zm41.866913 -7.046875l5.828125 0.984375q-1.125 3.203125 -3.5625 4.890625q-2.421875 1.671875 -6.0625 1.671875q-5.765625 0 -8.53125 -3.765625q-2.1875 -3.03125 -2.1875 -7.625q0 -5.5 2.875 -8.609375q2.875 -3.125 7.265625 -3.125q4.9375 0 7.78125 3.265625q2.859375 3.265625 2.734375 9.984375l-14.65625 0q0.0625 2.609375 1.40625 4.0625q1.359375 1.4375 3.375 1.4375q1.375 0 2.3125 -0.75q0.9375 -0.75 1.421875 -2.421875zm0.328125 -5.90625q-0.0625 -2.546875 -1.3125 -3.859375q-1.25 -1.328125 -3.046875 -1.328125q-1.90625 0 -3.15625 1.390625q-1.25 1.40625 -1.234375 3.796875l8.75 0zm23.395233 5.90625l5.828125 0.984375q-1.125 3.203125 -3.5625 4.890625q-2.421875 1.671875 -6.0625 1.671875q-5.765625 0 -8.53125 -3.765625q-2.1875 -3.03125 -2.1875 -7.625q0 -5.5 2.875 -8.609375q2.875 -3.125 7.265625 -3.125q4.9375 0 7.78125 3.265625q2.859375 3.265625 2.734375 9.984375l-14.65625 0q0.0625 2.609375 1.40625 4.0625q1.359375 1.4375 3.375 1.4375q1.375 0 2.3125 -0.75q0.9375 -0.75 1.421875 -2.421875zm0.328125 -5.90625q-0.0625 -2.546875 -1.3125 -3.859375q-1.25 -1.328125 -3.046875 -1.328125q-1.90625 0 -3.15625 1.390625q-1.25 1.40625 -1.234375 3.796875l8.75 0zm30.707794 12.953125l-5.859375 0l0 -11.28125q0 -3.59375 -0.375 -4.640625q-0.375 -1.046875 -1.21875 -1.625q-0.84375 -0.59375 -2.0312805 -0.59375q-1.515625 0 -2.734375 0.84375q-1.203125 0.828125 -1.65625 2.203125q-0.4375 1.375 -0.4375 5.078125l0 10.015625l-5.859375 0l0 -22.125l5.4375 0l0 3.25q2.890625 -3.75 7.2969055 -3.75q1.9375 0 3.53125 0.703125q1.609375 0.703125 2.421875 1.78125q0.828125 1.078125 1.15625 2.453125q0.328125 1.375 0.328125 3.9375l0 13.75zm17.344849 -22.125l5.390625 0l0 3.03125q2.890625 -3.53125 6.890625 -3.53125q2.125 0 3.6875 0.875q1.5625 0.875 2.5625 2.65625q1.46875 -1.78125 3.15625 -2.65625q1.6875 -0.875 3.59375 -0.875q2.4375 0 4.125 1.0q1.6875 0.984375 2.515625 2.90625q0.609375 1.40625 0.609375 4.578125l0 14.140625l-5.84375 0l0 -12.640625q0 -3.296875 -0.609375 -4.25q-0.8125 -1.25 -2.5 -1.25q-1.234375 0 -2.3125 0.75q-1.078125 0.75 -1.5625 2.203125q-0.484375 1.4375 -0.484375 4.5625l0 10.625l-5.84375 0l0 -12.125q0 -3.21875 -0.3125 -4.15625q-0.3125 -0.9375 -0.96875 -1.390625q-0.65625 -0.46875 -1.78125 -0.46875q-1.359375 0 -2.4375 0.734375q-1.078125 0.71875 -1.546875 2.09375q-0.46875 1.375 -0.46875 4.5625l0 10.75l-5.859375 0l0 -22.125zm51.178223 15.078125l5.828125 0.984375q-1.125 3.203125 -3.5625 4.890625q-2.421875 1.671875 -6.0625 1.671875q-5.765625 0 -8.53125 -3.765625q-2.1875 -3.03125 -2.1875 -7.625q0 -5.5 2.875 -8.609375q2.875 -3.125 7.265625 -3.125q4.9375 0 7.78125 3.265625q2.859375 3.265625 2.734375 9.984375l-14.65625 0q0.0625 2.609375 1.40625 4.0625q1.359375 1.4375 3.375 1.4375q1.375 0 2.3125 -0.75q0.9375 -0.75 1.421875 -2.421875zm0.328125 -5.90625q-0.0625 -2.546875 -1.3125 -3.859375q-1.25 -1.328125 -3.046875 -1.328125q-1.90625 0 -3.15625 1.390625q-1.25 1.40625 -1.234375 3.796875l8.75 0zm20.723389 -9.171875l0 4.671875l-4.0 0l0 8.90625q0 2.71875 0.109375 3.171875q0.125 0.4375 0.53125 0.734375q0.40625 0.28125 0.984375 0.28125q0.8125 0 2.359375 -0.5625l0.5 4.546875q-2.046875 0.875 -4.625 0.875q-1.578125 0 -2.859375 -0.53125q-1.265625 -0.53125 -1.859375 -1.375q-0.59375 -0.84375 -0.828125 -2.28125q-0.1875 -1.015625 -0.1875 -4.125l0 -9.640625l-2.6875 0l0 -4.671875l2.6875 0l0 -4.390625l5.875 -3.421875l0 7.8125l4.0 0zm17.78302 22.125l-5.84375 0l0 -22.0625q-3.203125 3.0 -7.5625 4.4375l0 -5.3125q2.296875 -0.75 4.96875 -2.84375q2.6875 -2.09375 3.6875 -4.875l4.75 0l0 30.65625zm6.8795776 0.515625l7.5625 -31.578125l4.390625 0l-7.640625 31.578125l-4.3125 0zm14.538818 -22.640625l5.390625 0l0 3.03125q2.890625 -3.53125 6.890625 -3.53125q2.125 0 3.6875 0.875q1.5625 0.875 2.5625 2.65625q1.46875 -1.78125 3.15625 -2.65625q1.6875 -0.875 3.59375 -0.875q2.4375 0 4.125 1.0q1.6875 0.984375 2.515625 2.90625q0.609375 1.40625 0.609375 4.578125l0 14.140625l-5.84375 0l0 -12.640625q0 -3.296875 -0.609375 -4.25q-0.8125 -1.25 -2.5 -1.25q-1.234375 0 -2.3125 0.75q-1.078125 0.75 -1.5625 2.203125q-0.484375 1.4375 -0.484375 4.5625l0 10.625l-5.84375 0l0 -12.125q0 -3.21875 -0.3125 -4.15625q-0.3125 -0.9375 -0.96875 -1.390625q-0.65625 -0.46875 -1.78125 -0.46875q-1.359375 0 -2.4375 0.734375q-1.078125 0.71875 -1.546875 2.09375q-0.46875 1.375 -0.46875 4.5625l0 10.75l-5.859375 0l0 -22.125zm51.178223 15.078125l5.828125 0.984375q-1.125 3.203125 -3.5625 4.890625q-2.421875 1.671875 -6.0625 1.671875q-5.765625 0 -8.53125 -3.765625q-2.1875 -3.03125 -2.1875 -7.625q0 -5.5 2.875 -8.609375q2.875 -3.125 7.265625 -3.125q4.9375 0 7.78125 3.265625q2.859375 3.265625 2.734375 9.984375l-14.65625 0q0.0625 2.609375 1.40625 4.0625q1.359375 1.4375 3.375 1.4375q1.375 0 2.3125 -0.75q0.9375 -0.75 1.421875 -2.421875zm0.328125 -5.90625q-0.0625 -2.546875 -1.3125 -3.859375q-1.25 -1.328125 -3.046875 -1.328125q-1.90625 0 -3.15625 1.390625q-1.25 1.40625 -1.234375 3.796875l8.75 0zm20.723389 -9.171875l0 4.671875l-4.0 0l0 8.90625q0 2.71875 0.109375 3.171875q0.125 0.4375 0.53125 0.734375q0.40625 0.28125 0.984375 0.28125q0.8125 0 2.359375 -0.5625l0.5 4.546875q-2.046875 0.875 -4.625 0.875q-1.578125 0 -2.859375 -0.53125q-1.265625 -0.53125 -1.859375 -1.375q-0.59375 -0.84375 -0.828125 -2.28125q-0.1875 -1.015625 -0.1875 -4.125l0 -9.640625l-2.6875 0l0 -4.671875l2.6875 0l0 -4.390625l5.875 -3.421875l0 7.8125l4.0 0zm22.579834 16.6875l0 5.4375l-20.515625 0q0.328125 -3.078125 2.0 -5.84375q1.671875 -2.765625 6.578125 -7.3125q3.953125 -3.6875 4.859375 -5.0q1.203125 -1.8125 1.203125 -3.59375q0 -1.953125 -1.0625 -3.0q-1.046875 -1.0625 -2.890625 -1.0625q-1.828125 0 -2.921875 1.109375q-1.078125 1.109375 -1.25 3.671875l-5.828125 -0.59375q0.515625 -4.828125 3.265625 -6.921875q2.75 -2.109375 6.875 -2.109375q4.515625 0 7.09375 2.4375q2.59375 2.4375 2.59375 6.0625q0 2.0625 -0.75 3.921875q-0.734375 1.859375 -2.328125 3.90625q-1.0625 1.359375 -3.84375 3.90625q-2.765625 2.53125 -3.5 3.359375q-0.734375 0.828125 -1.203125 1.625l11.625 0z"
      fill-rule="nonzero" />
    <path fill="#000000" fill-opacity="0.0" d="m623.03 164.33989l215.05511 0l0 87.244095l-215.05511 0z"
      fill-rule="evenodd" />
    <path fill="#000000"
      d="m635.0925 183.69989l-2.359375 0l2.40625 -11.453125l5.078125 0q1.3125 0 2.046875 0.265625q0.734375 0.265625 1.171875 0.984375q0.453125 0.71875 0.453125 1.75q0 1.453125 -0.875 2.40625q-0.875 0.953125 -2.640625 1.171875q0.453125 0.40625 0.84375 1.078125q0.796875 1.34375 1.765625 3.796875l-2.53125 0q-0.3125 -0.96875 -1.203125 -3.03125q-0.484375 -1.109375 -1.03125 -1.484375q-0.328125 -0.234375 -1.171875 -0.234375l-0.953125 0l-1.0 4.75zm1.359375 -6.46875l1.25 0q1.890625 0 2.515625 -0.21875q0.625 -0.234375 0.96875 -0.71875q0.359375 -0.484375 0.359375 -1.015625q0 -0.625 -0.515625 -0.9375q-0.3125 -0.1875 -1.34375 -0.1875l-2.59375 0l-0.640625 3.078125zm10.1953125 6.46875l-2.359375 0l2.40625 -11.453125l5.078125 0q1.3125 0 2.046875 0.265625q0.734375 0.265625 1.171875 0.984375q0.453125 0.71875 0.453125 1.75q0 1.453125 -0.875 2.40625q-0.875 0.953125 -2.640625 1.171875q0.453125 0.40625 0.84375 1.078125q0.796875 1.34375 1.765625 3.796875l-2.53125 0q-0.3125 -0.96875 -1.203125 -3.03125q-0.484375 -1.109375 -1.03125 -1.484375q-0.328125 -0.234375 -1.171875 -0.234375l-0.953125 0l-1.0 4.75zm1.359375 -6.46875l1.25 0q1.890625 0 2.515625 -0.21875q0.625 -0.234375 0.96875 -0.71875q0.359375 -0.484375 0.359375 -1.015625q0 -0.625 -0.515625 -0.9375q-0.3125 -0.1875 -1.34375 -0.1875l-2.59375 0l-0.640625 3.078125zm15.2890625 3.9375l-4.53125 0l-1.375 2.53125l-2.4375 0l6.484375 -11.453125l2.625 0l1.859375 11.453125l-2.234375 0l-0.390625 -2.53125zm-0.28125 -1.90625l-0.671875 -4.609375l-2.765625 4.609375l3.4375 0zm10.9296875 4.4375l-2.234375 0l-0.421875 -9.578125l-1.8125 9.578125l-2.125 0l2.390625 -11.453125l3.359375 0l0.34375 8.015625l3.90625 -8.015625l3.40625 0l-2.40625 11.453125l-2.140625 0l2.25 -9.5l-4.515625 9.5zm11.1015625 0l2.390625 -11.453125l2.25 0l-0.796875 3.828125q0.609375 -0.46875 1.140625 -0.671875q0.546875 -0.203125 1.171875 -0.203125q1.3125 0 2.09375 0.890625q0.796875 0.875 0.796875 2.546875q0 1.140625 -0.375 2.203125q-0.359375 1.0625 -0.984375 1.734375q-0.625 0.671875 -1.3125 1.0q-0.671875 0.328125 -1.421875 0.328125q-1.78125 0 -2.625 -1.578125l-0.28125 1.375l-2.046875 0zm3.03125 -3.390625q0 0.84375 0.46875 1.375q0.46875 0.515625 1.109375 0.515625q0.5625 0 1.078125 -0.40625q0.515625 -0.40625 0.84375 -1.296875q0.34375 -0.890625 0.34375 -1.796875q0 -0.890625 -0.453125 -1.390625q-0.453125 -0.5 -1.109375 -0.5q-0.84375 0 -1.453125 0.78125q-0.828125 1.0625 -0.828125 2.71875zm7.5078125 -4.90625l2.234375 0l0.5625 4.125q0.203125 1.59375 0.234375 2.234375q0.4375 -1.265625 1.203125 -2.6875l1.984375 -3.671875l2.375 0l-5.125 9.109375q-0.640625 1.140625 -1.0 1.59375q-0.359375 0.453125 -0.875 0.703125q-0.515625 0.265625 -1.234375 0.265625q-0.703125 0 -1.59375 -0.25l0.1875 -1.671875q0.40625 0.109375 0.796875 0.109375q1.03125 0 1.6875 -1.5625l-1.4375 -8.296875zm9.8671875 0l2.125 0l-0.1875 0.84375q0.6875 -0.5625 1.28125 -0.796875q0.59375 -0.25 1.265625 -0.25q1.3125 0 2.09375 0.90625q0.796875 0.890625 0.796875 2.671875q0 2.25 -1.359375 3.796875q-1.171875 1.328125 -2.78125 1.328125q-1.640625 0 -2.484375 -1.34375l-0.90625 4.3125l-2.25 0l2.40625 -11.46875zm1.34375 4.75q0 0.96875 0.46875 1.515625q0.484375 0.53125 1.125 0.53125q0.546875 0 1.0625 -0.40625q0.515625 -0.40625 0.859375 -1.328125q0.34375 -0.9375 0.34375 -1.734375q0 -0.9375 -0.453125 -1.421875q-0.4375 -0.5 -1.125 -0.5q-0.640625 0 -1.171875 0.453125q-0.53125 0.453125 -0.828125 1.34375q-0.28125 0.890625 -0.28125 1.546875zm9.9296875 -2.40625l-2.1875 -0.1875q0.375 -1.109375 1.296875 -1.734375q0.9375 -0.625 2.484375 -0.625q1.59375 0 2.359375 0.65625q0.765625 0.640625 0.765625 1.5625q0 0.375 -0.0625 0.796875q-0.0625 0.421875 -0.46875 2.21875q-0.328125 1.484375 -0.328125 2.078125q0 0.53125 0.1875 1.1875l-2.171875 0q-0.140625 -0.453125 -0.171875 -0.9375q-0.484375 0.546875 -1.125 0.84375q-0.640625 0.296875 -1.296875 0.296875q-1.03125 0 -1.703125 -0.671875q-0.671875 -0.6875 -0.671875 -1.75q0 -1.1875 0.734375 -1.890625q0.75 -0.71875 2.640625 -0.875q1.609375 -0.125 2.140625 -0.3125q0.140625 -0.46875 0.140625 -0.75q0 -0.359375 -0.296875 -0.59375q-0.28125 -0.25 -0.84375 -0.25q-0.609375 0 -0.953125 0.25q-0.34375 0.234375 -0.46875 0.6875zm2.125 2.078125q-0.203125 0.0625 -0.53125 0.109375q-1.6875 0.203125 -2.203125 0.59375q-0.375 0.28125 -0.375 0.75q0 0.390625 0.28125 0.671875q0.28125 0.265625 0.75 0.265625q0.5 0 0.953125 -0.25q0.453125 -0.25 0.671875 -0.625q0.21875 -0.390625 0.390625 -1.21875l0.0625 -0.296875zm3.3203125 1.546875l2.171875 -0.34375q0.28125 0.6875 0.703125 0.984375q0.4375 0.28125 1.1875 0.28125q0.765625 0 1.21875 -0.34375q0.328125 -0.234375 0.328125 -0.578125q0 -0.21875 -0.171875 -0.40625q-0.171875 -0.171875 -0.921875 -0.421875q-2.03125 -0.671875 -2.515625 -1.0625q-0.765625 -0.609375 -0.765625 -1.59375q0 -0.984375 0.734375 -1.6875q1.03125 -1.0 3.046875 -1.0q1.59375 0 2.40625 0.59375q0.828125 0.578125 1.046875 1.578125l-2.0625 0.359375q-0.171875 -0.453125 -0.53125 -0.671875q-0.5 -0.3125 -1.203125 -0.3125q-0.703125 0 -1.015625 0.234375q-0.3125 0.234375 -0.3125 0.546875q0 0.3125 0.3125 0.515625q0.203125 0.125 1.265625 0.4375q1.640625 0.46875 2.1875 0.9375q0.78125 0.640625 0.78125 1.5625q0 1.171875 -1.0 2.046875q-0.984375 0.875 -2.78125 0.875q-1.796875 0 -2.78125 -0.65625q-0.984375 -0.671875 -1.328125 -1.875zm8.8984375 0l2.171875 -0.34375q0.28125 0.6875 0.703125 0.984375q0.4375 0.28125 1.1875 0.28125q0.765625 0 1.21875 -0.34375q0.328125 -0.234375 0.328125 -0.578125q0 -0.21875 -0.171875 -0.40625q-0.171875 -0.171875 -0.921875 -0.421875q-2.03125 -0.671875 -2.515625 -1.0625q-0.765625 -0.609375 -0.765625 -1.59375q0 -0.984375 0.734375 -1.6875q1.03125 -1.0 3.046875 -1.0q1.59375 0 2.40625 0.59375q0.828125 0.578125 1.046875 1.578125l-2.0625 0.359375q-0.171875 -0.453125 -0.53125 -0.671875q-0.5 -0.3125 -1.203125 -0.3125q-0.703125 0 -1.015625 0.234375q-0.3125 0.234375 -0.3125 0.546875q0 0.3125 0.3125 0.515625q0.203125 0.125 1.265625 0.4375q1.640625 0.46875 2.1875 0.9375q0.78125 0.640625 0.78125 1.5625q0 1.171875 -1.0 2.046875q-0.984375 0.875 -2.78125 0.875q-1.796875 0 -2.78125 -0.65625q-0.984375 -0.671875 -1.328125 -1.875z"
      fill-rule="nonzero" />
    <path fill="#000000"
      d="m635.8738 206.27489l-1.53125 0q-0.640625 -1.5 -0.953125 -3.03125q-0.296875 -1.53125 -0.296875 -2.796875q0 -1.59375 0.5 -3.203125q0.515625 -1.609375 1.578125 -3.265625q0.65625 -1.0625 2.125 -2.734375l1.703125 0q-1.484375 1.75 -2.296875 3.296875q-0.8125 1.53125 -1.21875 3.34375q-0.390625 1.8125 -0.390625 3.546875q0 1.171875 0.171875 2.28125q0.1875 1.125 0.609375 2.5625zm5.71875 -11.265625l-2.203125 -0.328125q0.265625 -1.59375 1.234375 -2.4375q0.984375 -0.84375 2.4375 -0.84375q1.609375 0 2.515625 0.875q0.921875 0.859375 0.921875 2.1875q0 0.6875 -0.28125 1.375q-0.28125 0.671875 -0.921875 1.421875q-0.46875 0.53125 -1.515625 1.515625q-1.046875 0.96875 -1.390625 1.328125q-0.328125 0.34375 -0.640625 0.75l3.96875 0l-0.421875 2.046875l-6.96875 0q0.109375 -0.84375 0.5 -1.609375q0.390625 -0.765625 0.96875 -1.421875q0.578125 -0.65625 2.109375 -2.109375q1.15625 -1.109375 1.46875 -1.453125q0.546875 -0.609375 0.75 -1.046875q0.203125 -0.453125 0.203125 -0.8125q0 -0.578125 -0.34375 -0.9375q-0.34375 -0.359375 -0.859375 -0.359375q-0.53125 0 -0.9375 0.40625q-0.390625 0.40625 -0.59375 1.453125zm9.46875 5.5625l2.171875 -0.34375q0.28125 0.6875 0.703125 0.984375q0.4375 0.28125 1.1875 0.28125q0.765625 0 1.21875 -0.34375q0.328125 -0.234375 0.328125 -0.578125q0 -0.21875 -0.171875 -0.40625q-0.171875 -0.171875 -0.921875 -0.421875q-2.03125 -0.671875 -2.515625 -1.0625q-0.765625 -0.609375 -0.765625 -1.59375q0 -0.984375 0.734375 -1.6875q1.03125 -1.0 3.046875 -1.0q1.59375 0 2.40625 0.59375q0.828125 0.578125 1.046875 1.578125l-2.0625 0.359375q-0.171875 -0.453125 -0.53125 -0.671875q-0.5 -0.3125 -1.203125 -0.3125q-0.703125 0 -1.015625 0.234375q-0.3125 0.234375 -0.3125 0.546875q0 0.3125 0.3125 0.515625q0.203125 0.125 1.265625 0.4375q1.640625 0.46875 2.1875 0.9375q0.78125 0.640625 0.78125 1.5625q0 1.171875 -1.0 2.046875q-0.984375 0.875 -2.78125 0.875q-1.796875 0 -2.78125 -0.65625q-0.984375 -0.671875 -1.328125 -1.875zm9.7421875 -4.3125l0.34375 -1.65625l1.09375 0l0.28125 -1.328125l2.5625 -1.546875l-0.59375 2.875l1.359375 0l-0.34375 1.65625l-1.375 0l-0.71875 3.484375q-0.203125 0.9375 -0.203125 1.078125q0 0.25 0.15625 0.40625q0.171875 0.140625 0.609375 0.140625q0.140625 0 0.734375 -0.0625l-0.34375 1.671875q-0.578125 0.125 -1.1875 0.125q-1.1875 0 -1.734375 -0.453125q-0.53125 -0.46875 -0.53125 -1.28125q0 -0.390625 0.28125 -1.765625l0.703125 -3.34375l-1.09375 0zm7.9375 0.6875l-2.1875 -0.1875q0.375 -1.109375 1.296875 -1.734375q0.9375 -0.625 2.484375 -0.625q1.59375 0 2.359375 0.65625q0.765625 0.640625 0.765625 1.5625q0 0.375 -0.0625 0.796875q-0.0625 0.421875 -0.46875 2.21875q-0.328125 1.484375 -0.328125 2.078125q0 0.53125 0.1875 1.1875l-2.171875 0q-0.140625 -0.453125 -0.171875 -0.9375q-0.484375 0.546875 -1.125 0.84375q-0.640625 0.296875 -1.296875 0.296875q-1.03125 0 -1.703125 -0.671875q-0.671875 -0.6875 -0.671875 -1.75q0 -1.1875 0.734375 -1.890625q0.75 -0.71875 2.640625 -0.875q1.609375 -0.125 2.140625 -0.3125q0.140625 -0.46875 0.140625 -0.75q0 -0.359375 -0.296875 -0.59375q-0.28125 -0.25 -0.84375 -0.25q-0.609375 0 -0.953125 0.25q-0.34375 0.234375 -0.46875 0.6875zm2.125 2.078125q-0.203125 0.0625 -0.53125 0.109375q-1.6875 0.203125 -2.203125 0.59375q-0.375 0.28125 -0.375 0.75q0 0.390625 0.28125 0.671875q0.28125 0.265625 0.75 0.265625q0.5 0 0.953125 -0.25q0.453125 -0.25 0.671875 -0.625q0.21875 -0.390625 0.390625 -1.21875l0.0625 -0.296875zm9.2265625 0.75l2.1875 0.34375q-0.546875 1.453125 -1.609375 2.21875q-1.046875 0.765625 -2.4375 0.765625q-1.578125 0 -2.515625 -0.953125q-0.921875 -0.953125 -0.921875 -2.609375q0 -1.34375 0.5625 -2.546875q0.5625 -1.203125 1.6875 -1.890625q1.140625 -0.703125 2.484375 -0.703125q1.46875 0 2.34375 0.765625q0.875 0.765625 0.984375 2.015625l-2.125 0.234375q-0.078125 -0.703125 -0.4375 -1.03125q-0.34375 -0.328125 -0.90625 -0.328125q-0.640625 0 -1.203125 0.484375q-0.5625 0.484375 -0.875 1.453125q-0.296875 0.96875 -0.296875 1.8125q0 0.734375 0.359375 1.140625q0.359375 0.390625 0.90625 0.390625q0.53125 0 1.03125 -0.390625q0.5 -0.390625 0.78125 -1.171875zm3.2421875 3.125l2.390625 -11.453125l2.25 0l-1.25 5.953125l2.921875 -2.796875l2.90625 0l-3.328125 3.015625l1.765625 5.28125l-2.234375 0l-1.140625 -3.84375l-1.515625 1.34375l-0.53125 2.5l-2.234375 0zm17.007812 -3.453125l-5.625 0q0 0.125 0 0.203125q0 0.828125 0.46875 1.34375q0.46875 0.5 1.15625 0.5q1.109375 0 1.734375 -1.15625l2.015625 0.328125q-0.59375 1.21875 -1.578125 1.828125q-0.96875 0.609375 -2.1875 0.609375q-1.671875 0 -2.71875 -1.0625q-1.046875 -1.0625 -1.046875 -2.8125q0 -1.703125 0.9375 -3.03125q1.296875 -1.796875 3.6875 -1.796875q1.515625 0 2.40625 0.953125q0.90625 0.9375 0.90625 2.625q0 0.8125 -0.15625 1.46875zm-1.890625 -1.375q0.015625 -0.140625 0.015625 -0.21875q0 -0.921875 -0.421875 -1.375q-0.40625 -0.46875 -1.109375 -0.46875q-0.6875 0 -1.25 0.53125q-0.546875 0.515625 -0.734375 1.53125l3.5 0zm10.3828125 4.828125l-2.125 0l0.1875 -0.90625q-0.609375 0.59375 -1.203125 0.859375q-0.59375 0.25 -1.328125 0.25q-1.296875 0 -2.09375 -0.875q-0.796875 -0.890625 -0.796875 -2.609375q0 -2.0 1.125 -3.609375q1.125 -1.609375 2.96875 -1.609375q1.671875 0 2.515625 1.328125l0.890625 -4.28125l2.25 0l-2.390625 11.453125zm-5.1875 -3.375q0 0.890625 0.453125 1.390625q0.453125 0.5 1.109375 0.5q0.609375 0 1.125 -0.421875q0.53125 -0.421875 0.84375 -1.28125q0.328125 -0.859375 0.328125 -1.640625q0 -0.90625 -0.484375 -1.453125q-0.484375 -0.5625 -1.125 -0.5625q-0.984375 0 -1.625 1.09375q-0.625 1.09375 -0.625 2.375zm13.5 -4.921875l2.125 0l-0.21875 1.078125q0.796875 -0.6875 1.484375 -0.984375q0.703125 -0.296875 1.46875 -0.296875q1.015625 0 1.609375 0.59375q0.59375 0.578125 0.59375 1.546875q0 0.4375 -0.265625 1.65625l-0.96875 4.703125l-2.25 0l0.984375 -4.71875q0.21875 -1.046875 0.21875 -1.25q0 -0.4375 -0.25 -0.671875q-0.25 -0.25 -0.703125 -0.25q-0.5 0 -1.109375 0.421875q-0.59375 0.40625 -0.9375 1.078125q-0.25 0.484375 -0.5625 1.984375l-0.703125 3.40625l-2.25 0l1.734375 -8.296875zm8.3359375 4.84375q0 -2.296875 1.296875 -3.671875q1.3125 -1.375 3.421875 -1.375q1.84375 0 2.875 1.015625q1.03125 1.015625 1.03125 2.71875q0 2.015625 -1.296875 3.5q-1.28125 1.46875 -3.453125 1.46875q-1.171875 0 -2.078125 -0.46875q-0.90625 -0.484375 -1.359375 -1.34375q-0.4375 -0.859375 -0.4375 -1.84375zm6.390625 -1.59375q0 -0.796875 -0.46875 -1.28125q-0.453125 -0.484375 -1.1875 -0.484375q-0.734375 0 -1.296875 0.453125q-0.5625 0.453125 -0.875 1.3125q-0.3125 0.84375 -0.3125 1.5625q0 0.890625 0.484375 1.421875q0.484375 0.515625 1.21875 0.515625q0.921875 0 1.546875 -0.78125q0.890625 -1.125 0.890625 -2.71875zm4.6640625 -3.25l2.09375 0l-0.328125 1.609375q1.171875 -1.8125 2.53125 -1.8125q0.484375 0 1.046875 0.25l-0.859375 1.828125q-0.3125 -0.109375 -0.65625 -0.109375q-0.578125 0 -1.171875 0.4375q-0.59375 0.4375 -0.9375 1.171875q-0.328125 0.734375 -0.65625 2.3125l-0.546875 2.609375l-2.25 0l1.734375 -8.296875zm6.2890625 0l2.109375 0l-0.21875 1.0q1.234375 -1.203125 2.59375 -1.203125q0.9375 0 1.4375 0.390625q0.515625 0.390625 0.65625 1.078125q0.4375 -0.625 1.234375 -1.046875q0.8125 -0.421875 1.671875 -0.421875q1.0 0 1.546875 0.53125q0.5625 0.53125 0.5625 1.40625q0 0.4375 -0.21875 1.484375l-1.0625 5.078125l-2.25 0l1.0625 -5.078125q0.203125 -0.953125 0.203125 -1.078125q0 -0.34375 -0.21875 -0.53125q-0.203125 -0.203125 -0.609375 -0.203125q-0.84375 0 -1.5 0.875q-0.46875 0.640625 -0.8125 2.25l-0.78125 3.765625l-2.25 0l1.046875 -5.015625q0.1875 -0.875 0.1875 -1.125q0 -0.328125 -0.234375 -0.53125q-0.21875 -0.21875 -0.609375 -0.21875q-0.359375 0 -0.75 0.21875q-0.390625 0.21875 -0.6875 0.609375q-0.296875 0.375 -0.5 0.96875q-0.09375 0.28125 -0.3125 1.28125l-0.796875 3.8125l-2.234375 0l1.734375 -8.296875zm15.7265625 2.34375l-2.1875 -0.1875q0.375 -1.109375 1.296875 -1.734375q0.9375 -0.625 2.484375 -0.625q1.59375 0 2.359375 0.65625q0.765625 0.640625 0.765625 1.5625q0 0.375 -0.0625 0.796875q-0.0625 0.421875 -0.46875 2.21875q-0.328125 1.484375 -0.328125 2.078125q0 0.53125 0.1875 1.1875l-2.171875 0q-0.140625 -0.453125 -0.171875 -0.9375q-0.484375 0.546875 -1.125 0.84375q-0.640625 0.296875 -1.296875 0.296875q-1.03125 0 -1.703125 -0.671875q-0.671875 -0.6875 -0.671875 -1.75q0 -1.1875 0.734375 -1.890625q0.75 -0.71875 2.640625 -0.875q1.609375 -0.125 2.140625 -0.3125q0.140625 -0.46875 0.140625 -0.75q0 -0.359375 -0.296875 -0.59375q-0.28125 -0.25 -0.84375 -0.25q-0.609375 0 -0.953125 0.25q-0.34375 0.234375 -0.46875 0.6875zm2.125 2.078125q-0.203125 0.0625 -0.53125 0.109375q-1.6875 0.203125 -2.203125 0.59375q-0.375 0.28125 -0.375 0.75q0 0.390625 0.28125 0.671875q0.28125 0.265625 0.75 0.265625q0.5 0 0.953125 -0.25q0.453125 -0.25 0.671875 -0.625q0.21875 -0.390625 0.390625 -1.21875l0.0625 -0.296875zm3.5859375 3.875l2.40625 -11.453125l2.234375 0l-2.390625 11.453125l-2.25 0zm13.0625 0l-1.9375 0l-1.65625 -8.296875l2.203125 0l0.578125 3.609375q0.25 1.46875 0.296875 1.953125q0.0625 -0.125 0.53125 -1.0q0.484375 -0.890625 0.59375 -1.0625l2.0625 -3.5l2.421875 0l-5.09375 8.296875zm7.1328125 -11.453125l2.25 0l-0.421875 2.03125l-2.25 0l0.421875 -2.03125zm-0.65625 3.15625l2.25 0l-1.734375 8.296875l-2.25 0l1.734375 -8.296875zm5.8828125 2.34375l-2.1875 -0.1875q0.375 -1.109375 1.296875 -1.734375q0.9375 -0.625 2.484375 -0.625q1.59375 0 2.359375 0.65625q0.765625 0.640625 0.765625 1.5625q0 0.375 -0.0625 0.796875q-0.0625 0.421875 -0.46875 2.21875q-0.328125 1.484375 -0.328125 2.078125q0 0.53125 0.1875 1.1875l-2.171875 0q-0.140625 -0.453125 -0.171875 -0.9375q-0.484375 0.546875 -1.125 0.84375q-0.640625 0.296875 -1.296875 0.296875q-1.03125 0 -1.703125 -0.671875q-0.671875 -0.6875 -0.671875 -1.75q0 -1.1875 0.734375 -1.890625q0.75 -0.71875 2.640625 -0.875q1.609375 -0.125 2.140625 -0.3125q0.140625 -0.46875 0.140625 -0.75q0 -0.359375 -0.296875 -0.59375q-0.28125 -0.25 -0.84375 -0.25q-0.609375 0 -0.953125 0.25q-0.34375 0.234375 -0.46875 0.6875zm2.125 2.078125q-0.203125 0.0625 -0.53125 0.109375q-1.6875 0.203125 -2.203125 0.59375q-0.375 0.28125 -0.375 0.75q0 0.390625 0.28125 0.671875q0.28125 0.265625 0.75 0.265625q0.5 0 0.953125 -0.25q0.453125 -0.25 0.671875 -0.625q0.21875 -0.390625 0.390625 -1.21875l0.0625 -0.296875zm3.3203125 1.546875l2.171875 -0.34375q0.28125 0.6875 0.703125 0.984375q0.4375 0.28125 1.1875 0.28125q0.765625 0 1.21875 -0.34375q0.328125 -0.234375 0.328125 -0.578125q0 -0.21875 -0.171875 -0.40625q-0.171875 -0.171875 -0.921875 -0.421875q-2.03125 -0.671875 -2.515625 -1.0625q-0.765625 -0.609375 -0.765625 -1.59375q0 -0.984375 0.734375 -1.6875q1.03125 -1.0 3.046875 -1.0q1.59375 0 2.40625 0.59375q0.828125 0.578125 1.046875 1.578125l-2.0625 0.359375q-0.171875 -0.453125 -0.53125 -0.671875q-0.5 -0.3125 -1.203125 -0.3125q-0.703125 0 -1.015625 0.234375q-0.3125 0.234375 -0.3125 0.546875q0 0.3125 0.3125 0.515625q0.203125 0.125 1.265625 0.4375q1.640625 0.46875 2.1875 0.9375q0.78125 0.640625 0.78125 1.5625q0 1.171875 -1.0 2.046875q-0.984375 0.875 -2.78125 0.875q-1.796875 0 -2.78125 -0.65625q-0.984375 -0.671875 -1.328125 -1.875zm11.3984375 -5.96875l2.21875 0l-0.453125 2.171875l-2.21875 0l0.453125 -2.171875zm-1.28125 6.125l2.21875 0l-0.453125 2.171875l-2.21875 0l0.453125 -2.171875z"
      fill-rule="nonzero" />
    <path fill="#000000"
      d="m636.2644 214.20926l-2.203125 -0.328125q0.265625 -1.59375 1.234375 -2.4375q0.984375 -0.84375 2.4375 -0.84375q1.609375 0 2.515625 0.875q0.921875 0.859375 0.921875 2.1875q0 0.6875 -0.28125 1.375q-0.28125 0.671875 -0.921875 1.421875q-0.46875 0.53125 -1.515625 1.515625q-1.046875 0.96875 -1.390625 1.328125q-0.328125 0.34375 -0.640625 0.75l3.96875 0l-0.421875 2.046875l-6.96875 0q0.109375 -0.84375 0.5 -1.609375q0.390625 -0.765625 0.96875 -1.421875q0.578125 -0.65625 2.109375 -2.109375q1.15625 -1.109375 1.46875 -1.453125q0.546875 -0.609375 0.75 -1.046875q0.203125 -0.453125 0.203125 -0.8125q0 -0.578125 -0.34375 -0.9375q-0.34375 -0.359375 -0.859375 -0.359375q-0.53125 0 -0.9375 0.40625q-0.390625 0.40625 -0.59375 1.453125zm9.1328125 5.5625l-2.0625 2.328125l-2.765625 0l3.84375 -4.25l-2.109375 -4.046875l2.390625 0l1.203125 2.359375l2.109375 -2.359375l2.71875 0l-3.84375 4.296875l2.09375 4.0l-2.390625 0l-1.1875 -2.328125zm13.671875 2.328125l-1.9375 0l-1.65625 -8.296875l2.203125 0l0.578125 3.609375q0.25 1.46875 0.296875 1.953125q0.0625 -0.125 0.53125 -1.0q0.484375 -0.890625 0.59375 -1.0625l2.0625 -3.5l2.421875 0l-5.09375 8.296875zm7.1328125 -11.453125l2.25 0l-0.421875 2.03125l-2.25 0l0.421875 -2.03125zm-0.65625 3.15625l2.25 0l-1.734375 8.296875l-2.25 0l1.734375 -8.296875zm5.8828125 2.34375l-2.1875 -0.1875q0.375 -1.109375 1.296875 -1.734375q0.9375 -0.625 2.484375 -0.625q1.59375 0 2.359375 0.65625q0.765625 0.640625 0.765625 1.5625q0 0.375 -0.0625 0.796875q-0.0625 0.421875 -0.46875 2.21875q-0.328125 1.484375 -0.328125 2.078125q0 0.53125 0.1875 1.1875l-2.171875 0q-0.140625 -0.453125 -0.171875 -0.9375q-0.484375 0.546875 -1.125 0.84375q-0.640625 0.296875 -1.296875 0.296875q-1.03125 0 -1.703125 -0.671875q-0.671875 -0.6875 -0.671875 -1.75q0 -1.1875 0.734375 -1.890625q0.75 -0.71875 2.640625 -0.875q1.609375 -0.125 2.140625 -0.3125q0.140625 -0.46875 0.140625 -0.75q0 -0.359375 -0.296875 -0.59375q-0.28125 -0.25 -0.84375 -0.25q-0.609375 0 -0.953125 0.25q-0.34375 0.234375 -0.46875 0.6875zm2.125 2.078125q-0.203125 0.0625 -0.53125 0.109375q-1.6875 0.203125 -2.203125 0.59375q-0.375 0.28125 -0.375 0.75q0 0.390625 0.28125 0.671875q0.28125 0.265625 0.75 0.265625q0.5 0 0.953125 -0.25q0.453125 -0.25 0.671875 -0.625q0.21875 -0.390625 0.390625 -1.21875l0.0625 -0.296875zm8.609375 -2.765625l0.34375 -1.65625l1.09375 0l0.28125 -1.328125l2.5625 -1.546875l-0.59375 2.875l1.359375 0l-0.34375 1.65625l-1.375 0l-0.71875 3.484375q-0.203125 0.9375 -0.203125 1.078125q0 0.25 0.15625 0.40625q0.171875 0.140625 0.609375 0.140625q0.140625 0 0.734375 -0.0625l-0.34375 1.671875q-0.578125 0.125 -1.1875 0.125q-1.1875 0 -1.734375 -0.453125q-0.53125 -0.46875 -0.53125 -1.28125q0 -0.390625 0.28125 -1.765625l0.703125 -3.34375l-1.09375 0zm7.046875 6.640625l-2.25 0l2.40625 -11.453125l2.234375 0l-0.859375 4.078125q0.765625 -0.59375 1.421875 -0.859375q0.65625 -0.265625 1.40625 -0.265625q1.0 0 1.578125 0.578125q0.59375 0.578125 0.59375 1.515625q0 0.5 -0.21875 1.546875l-1.015625 4.859375l-2.234375 0l1.03125 -4.953125q0.171875 -0.796875 0.171875 -1.03125q0 -0.40625 -0.265625 -0.65625q-0.25 -0.25 -0.703125 -0.25q-0.5625 0 -1.078125 0.390625q-0.671875 0.515625 -1.015625 1.265625q-0.203125 0.40625 -0.515625 1.9375l-0.6875 3.296875zm9.8828125 -11.453125l2.25 0l-0.421875 2.03125l-2.25 0l0.421875 -2.03125zm-0.65625 3.15625l2.25 0l-1.734375 8.296875l-2.25 0l1.734375 -8.296875zm8.3359375 5.171875l2.1875 0.34375q-0.546875 1.453125 -1.609375 2.21875q-1.046875 0.765625 -2.4375 0.765625q-1.578125 0 -2.515625 -0.953125q-0.921875 -0.953125 -0.921875 -2.609375q0 -1.34375 0.5625 -2.546875q0.5625 -1.203125 1.6875 -1.890625q1.140625 -0.703125 2.484375 -0.703125q1.46875 0 2.34375 0.765625q0.875 0.765625 0.984375 2.015625l-2.125 0.234375q-0.078125 -0.703125 -0.4375 -1.03125q-0.34375 -0.328125 -0.90625 -0.328125q-0.640625 0 -1.203125 0.484375q-0.5625 0.484375 -0.875 1.453125q-0.296875 0.96875 -0.296875 1.8125q0 0.734375 0.359375 1.140625q0.359375 0.390625 0.90625 0.390625q0.53125 0 1.03125 -0.390625q0.5 -0.390625 0.78125 -1.171875zm3.2421875 3.125l2.390625 -11.453125l2.25 0l-1.25 5.953125l2.921875 -2.796875l2.90625 0l-3.328125 3.015625l1.765625 5.28125l-2.234375 0l-1.140625 -3.84375l-1.515625 1.34375l-0.53125 2.5l-2.234375 0zm10.6953125 -8.296875l2.125 0l-0.21875 1.078125q0.796875 -0.6875 1.484375 -0.984375q0.703125 -0.296875 1.46875 -0.296875q1.015625 0 1.609375 0.59375q0.59375 0.578125 0.59375 1.546875q0 0.4375 -0.265625 1.65625l-0.96875 4.703125l-2.25 0l0.984375 -4.71875q0.21875 -1.046875 0.21875 -1.25q0 -0.4375 -0.25 -0.671875q-0.25 -0.25 -0.703125 -0.25q-0.5 0 -1.109375 0.421875q-0.59375 0.40625 -0.9375 1.078125q-0.25 0.484375 -0.5625 1.984375l-0.703125 3.40625l-2.25 0l1.734375 -8.296875zm16.085938 4.84375l-5.625 0q0 0.125 0 0.203125q0 0.828125 0.46875 1.34375q0.46875 0.5 1.15625 0.5q1.109375 0 1.734375 -1.15625l2.015625 0.328125q-0.59375 1.21875 -1.578125 1.828125q-0.96875 0.609375 -2.1875 0.609375q-1.671875 0 -2.71875 -1.0625q-1.046875 -1.0625 -1.046875 -2.8125q0 -1.703125 0.9375 -3.03125q1.296875 -1.796875 3.6875 -1.796875q1.515625 0 2.40625 0.953125q0.90625 0.9375 0.90625 2.625q0 0.8125 -0.15625 1.46875zm-1.890625 -1.375q0.015625 -0.140625 0.015625 -0.21875q0 -0.921875 -0.421875 -1.375q-0.40625 -0.46875 -1.109375 -0.46875q-0.6875 0 -1.25 0.53125q-0.546875 0.515625 -0.734375 1.53125l3.5 0zm2.4296875 2.5l2.171875 -0.34375q0.28125 0.6875 0.703125 0.984375q0.4375 0.28125 1.1875 0.28125q0.765625 0 1.21875 -0.34375q0.328125 -0.234375 0.328125 -0.578125q0 -0.21875 -0.171875 -0.40625q-0.171875 -0.171875 -0.921875 -0.421875q-2.03125 -0.671875 -2.515625 -1.0625q-0.765625 -0.609375 -0.765625 -1.59375q0 -0.984375 0.734375 -1.6875q1.03125 -1.0 3.046875 -1.0q1.59375 0 2.40625 0.59375q0.828125 0.578125 1.046875 1.578125l-2.0625 0.359375q-0.171875 -0.453125 -0.53125 -0.671875q-0.5 -0.3125 -1.203125 -0.3125q-0.703125 0 -1.015625 0.234375q-0.3125 0.234375 -0.3125 0.546875q0 0.3125 0.3125 0.515625q0.203125 0.125 1.265625 0.4375q1.640625 0.46875 2.1875 0.9375q0.78125 0.640625 0.78125 1.5625q0 1.171875 -1.0 2.046875q-0.984375 0.875 -2.78125 0.875q-1.796875 0 -2.78125 -0.65625q-0.984375 -0.671875 -1.328125 -1.875zm8.8984375 0l2.171875 -0.34375q0.28125 0.6875 0.703125 0.984375q0.4375 0.28125 1.1875 0.28125q0.765625 0 1.21875 -0.34375q0.328125 -0.234375 0.328125 -0.578125q0 -0.21875 -0.171875 -0.40625q-0.171875 -0.171875 -0.921875 -0.421875q-2.03125 -0.671875 -2.515625 -1.0625q-0.765625 -0.609375 -0.765625 -1.59375q0 -0.984375 0.734375 -1.6875q1.03125 -1.0 3.046875 -1.0q1.59375 0 2.40625 0.59375q0.828125 0.578125 1.046875 1.578125l-2.0625 0.359375q-0.171875 -0.453125 -0.53125 -0.671875q-0.5 -0.3125 -1.203125 -0.3125q-0.703125 0 -1.015625 0.234375q-0.3125 0.234375 -0.3125 0.546875q0 0.3125 0.3125 0.515625q0.203125 0.125 1.265625 0.4375q1.640625 0.46875 2.1875 0.9375q0.78125 0.640625 0.78125 1.5625q0 1.171875 -1.0 2.046875q-0.984375 0.875 -2.78125 0.875q-1.796875 0 -2.78125 -0.65625q-0.984375 -0.671875 -1.328125 -1.875zm9.6796875 0.15625l2.265625 0l-0.375 1.796875q-0.328125 1.546875 -1.03125 2.1875q-0.703125 0.65625 -1.828125 0.671875l0.21875 -1.03125q0.5625 -0.125 0.859375 -0.453125q0.3125 -0.328125 0.46875 -1.0l-1.03125 0l0.453125 -2.171875zm8.109375 -0.15625l2.171875 -0.34375q0.28125 0.6875 0.703125 0.984375q0.4375 0.28125 1.1875 0.28125q0.765625 0 1.21875 -0.34375q0.328125 -0.234375 0.328125 -0.578125q0 -0.21875 -0.171875 -0.40625q-0.171875 -0.171875 -0.921875 -0.421875q-2.03125 -0.671875 -2.515625 -1.0625q-0.765625 -0.609375 -0.765625 -1.59375q0 -0.984375 0.734375 -1.6875q1.03125 -1.0 3.046875 -1.0q1.59375 0 2.40625 0.59375q0.828125 0.578125 1.046875 1.578125l-2.0625 0.359375q-0.171875 -0.453125 -0.53125 -0.671875q-0.5 -0.3125 -1.203125 -0.3125q-0.703125 0 -1.015625 0.234375q-0.3125 0.234375 -0.3125 0.546875q0 0.3125 0.3125 0.515625q0.203125 0.125 1.265625 0.4375q1.640625 0.46875 2.1875 0.9375q0.78125 0.640625 0.78125 1.5625q0 1.171875 -1.0 2.046875q-0.984375 0.875 -2.78125 0.875q-1.796875 0 -2.78125 -0.65625q-0.984375 -0.671875 -1.328125 -1.875zm12.3515625 -3.625l-2.1875 -0.1875q0.375 -1.109375 1.296875 -1.734375q0.9375 -0.625 2.484375 -0.625q1.59375 0 2.359375 0.65625q0.765625 0.640625 0.765625 1.5625q0 0.375 -0.0625 0.796875q-0.0625 0.421875 -0.46875 2.21875q-0.328125 1.484375 -0.328125 2.078125q0 0.53125 0.1875 1.1875l-2.171875 0q-0.140625 -0.453125 -0.171875 -0.9375q-0.484375 0.546875 -1.125 0.84375q-0.640625 0.296875 -1.296875 0.296875q-1.03125 0 -1.703125 -0.671875q-0.671875 -0.6875 -0.671875 -1.75q0 -1.1875 0.734375 -1.890625q0.75 -0.71875 2.640625 -0.875q1.609375 -0.125 2.140625 -0.3125q0.140625 -0.46875 0.140625 -0.75q0 -0.359375 -0.296875 -0.59375q-0.28125 -0.25 -0.84375 -0.25q-0.609375 0 -0.953125 0.25q-0.34375 0.234375 -0.46875 0.6875zm2.125 2.078125q-0.203125 0.0625 -0.53125 0.109375q-1.6875 0.203125 -2.203125 0.59375q-0.375 0.28125 -0.375 0.75q0 0.390625 0.28125 0.671875q0.28125 0.265625 0.75 0.265625q0.5 0 0.953125 -0.25q0.453125 -0.25 0.671875 -0.625q0.21875 -0.390625 0.390625 -1.21875l0.0625 -0.296875zm5.2734375 -4.421875l2.109375 0l-0.21875 1.0q1.234375 -1.203125 2.59375 -1.203125q0.9375 0 1.4375 0.390625q0.515625 0.390625 0.65625 1.078125q0.4375 -0.625 1.234375 -1.046875q0.8125 -0.421875 1.671875 -0.421875q1.0 0 1.546875 0.53125q0.5625 0.53125 0.5625 1.40625q0 0.4375 -0.21875 1.484375l-1.0625 5.078125l-2.25 0l1.0625 -5.078125q0.203125 -0.953125 0.203125 -1.078125q0 -0.34375 -0.21875 -0.53125q-0.203125 -0.203125 -0.609375 -0.203125q-0.84375 0 -1.5 0.875q-0.46875 0.640625 -0.8125 2.25l-0.78125 3.765625l-2.25 0l1.046875 -5.015625q0.1875 -0.875 0.1875 -1.125q0 -0.328125 -0.234375 -0.53125q-0.21875 -0.21875 -0.609375 -0.21875q-0.359375 0 -0.75 0.21875q-0.390625 0.21875 -0.6875 0.609375q-0.296875 0.375 -0.5 0.96875q-0.09375 0.28125 -0.3125 1.28125l-0.796875 3.8125l-2.234375 0l1.734375 -8.296875zm20.632812 4.84375l-5.625 0q0 0.125 0 0.203125q0 0.828125 0.46875 1.34375q0.46875 0.5 1.15625 0.5q1.109375 0 1.734375 -1.15625l2.015625 0.328125q-0.59375 1.21875 -1.578125 1.828125q-0.96875 0.609375 -2.1875 0.609375q-1.671875 0 -2.71875 -1.0625q-1.046875 -1.0625 -1.046875 -2.8125q0 -1.703125 0.9375 -3.03125q1.296875 -1.796875 3.6875 -1.796875q1.515625 0 2.40625 0.953125q0.90625 0.9375 0.90625 2.625q0 0.8125 -0.15625 1.46875zm-1.890625 -1.375q0.015625 -0.140625 0.015625 -0.21875q0 -0.921875 -0.421875 -1.375q-0.40625 -0.46875 -1.109375 -0.46875q-0.6875 0 -1.25 0.53125q-0.546875 0.515625 -0.734375 1.53125l3.5 0z"
      fill-rule="nonzero" />
    <path fill="#000000"
      d="m636.8269 241.29988l-1.9375 0l-1.65625 -8.296875l2.203125 0l0.578125 3.609375q0.25 1.46875 0.296875 1.953125q0.0625 -0.125 0.53125 -1.0q0.484375 -0.890625 0.59375 -1.0625l2.0625 -3.5l2.421875 0l-5.09375 8.296875zm7.1328125 -11.453125l2.25 0l-0.421875 2.03125l-2.25 0l0.421875 -2.03125zm-0.65625 3.15625l2.25 0l-1.734375 8.296875l-2.25 0l1.734375 -8.296875zm5.8828125 2.34375l-2.1875 -0.1875q0.375 -1.109375 1.296875 -1.734375q0.9375 -0.625 2.484375 -0.625q1.59375 0 2.359375 0.65625q0.765625 0.640625 0.765625 1.5625q0 0.375 -0.0625 0.796875q-0.0625 0.421875 -0.46875 2.21875q-0.328125 1.484375 -0.328125 2.078125q0 0.53125 0.1875 1.1875l-2.171875 0q-0.140625 -0.453125 -0.171875 -0.9375q-0.484375 0.546875 -1.125 0.84375q-0.640625 0.296875 -1.296875 0.296875q-1.03125 0 -1.703125 -0.671875q-0.671875 -0.6875 -0.671875 -1.75q0 -1.1875 0.734375 -1.890625q0.75 -0.71875 2.640625 -0.875q1.609375 -0.125 2.140625 -0.3125q0.140625 -0.46875 0.140625 -0.75q0 -0.359375 -0.296875 -0.59375q-0.28125 -0.25 -0.84375 -0.25q-0.609375 0 -0.953125 0.25q-0.34375 0.234375 -0.46875 0.6875zm2.125 2.078125q-0.203125 0.0625 -0.53125 0.109375q-1.6875 0.203125 -2.203125 0.59375q-0.375 0.28125 -0.375 0.75q0 0.390625 0.28125 0.671875q0.28125 0.265625 0.75 0.265625q0.5 0 0.953125 -0.25q0.453125 -0.25 0.671875 -0.625q0.21875 -0.390625 0.390625 -1.21875l0.0625 -0.296875zm16.71875 3.875l-2.109375 0l-0.40625 -5.28125l-2.53125 5.28125l-2.078125 0l-1.03125 -8.296875l1.984375 0l0.578125 5.5625l2.59375 -5.5625l2.03125 0l0.28125 5.5625l2.578125 -5.5625l2.25 0l-4.140625 8.296875zm6.1640625 -11.453125l2.25 0l-0.421875 2.03125l-2.25 0l0.421875 -2.03125zm-0.65625 3.15625l2.25 0l-1.734375 8.296875l-2.25 0l1.734375 -8.296875zm10.3828125 8.296875l-2.125 0l0.1875 -0.90625q-0.609375 0.59375 -1.203125 0.859375q-0.59375 0.25 -1.328125 0.25q-1.296875 0 -2.09375 -0.875q-0.796875 -0.890625 -0.796875 -2.609375q0 -2.0 1.125 -3.609375q1.125 -1.609375 2.96875 -1.609375q1.671875 0 2.515625 1.328125l0.890625 -4.28125l2.25 0l-2.390625 11.453125zm-5.1875 -3.375q0 0.890625 0.453125 1.390625q0.453125 0.5 1.109375 0.5q0.609375 0 1.125 -0.421875q0.53125 -0.421875 0.84375 -1.28125q0.328125 -0.859375 0.328125 -1.640625q0 -0.90625 -0.484375 -1.453125q-0.484375 -0.5625 -1.125 -0.5625q-0.984375 0 -1.625 1.09375q-0.625 1.09375 -0.625 2.375zm7.8515625 -3.265625l0.34375 -1.65625l1.09375 0l0.28125 -1.328125l2.5625 -1.546875l-0.59375 2.875l1.359375 0l-0.34375 1.65625l-1.375 0l-0.71875 3.484375q-0.203125 0.9375 -0.203125 1.078125q0 0.25 0.15625 0.40625q0.171875 0.140625 0.609375 0.140625q0.140625 0 0.734375 -0.0625l-0.34375 1.671875q-0.578125 0.125 -1.1875 0.125q-1.1875 0 -1.734375 -0.453125q-0.53125 -0.46875 -0.53125 -1.28125q0 -0.390625 0.28125 -1.765625l0.703125 -3.34375l-1.09375 0zm7.046875 6.640625l-2.25 0l2.40625 -11.453125l2.234375 0l-0.859375 4.078125q0.765625 -0.59375 1.421875 -0.859375q0.65625 -0.265625 1.40625 -0.265625q1.0 0 1.578125 0.578125q0.59375 0.578125 0.59375 1.515625q0 0.5 -0.21875 1.546875l-1.015625 4.859375l-2.234375 0l1.03125 -4.953125q0.171875 -0.796875 0.171875 -1.03125q0 -0.40625 -0.265625 -0.65625q-0.25 -0.25 -0.703125 -0.25q-0.5625 0 -1.078125 0.390625q-0.671875 0.515625 -1.015625 1.265625q-0.203125 0.40625 -0.515625 1.9375l-0.6875 3.296875zm20.984375 -4.984375l1.609375 0.96875q-0.21875 0.4375 -0.59375 0.953125q-0.359375 0.5 -0.671875 0.796875q0.453125 0.46875 1.140625 1.0625l-1.40625 1.46875q-0.265625 -0.140625 -0.6875 -0.46875q-0.40625 -0.34375 -0.6875 -0.640625q-0.5625 0.4375 -1.421875 0.75q-0.84375 0.296875 -1.828125 0.296875q-1.78125 0 -2.796875 -0.9375q-1.015625 -0.953125 -1.015625 -2.328125q0 -0.859375 0.40625 -1.609375q0.40625 -0.75 1.046875 -1.28125q0.453125 -0.375 1.5 -0.9375q-0.515625 -1.09375 -0.515625 -1.921875q0 -1.203125 0.875 -2.015625q0.890625 -0.828125 2.328125 -0.828125q1.234375 0 1.953125 0.65625q0.71875 0.65625 0.71875 1.53125q0 0.734375 -0.625 1.609375q-0.609375 0.859375 -2.03125 1.578125q0.4375 0.75 1.109375 1.71875q0.390625 0.59375 0.640625 0.84375q0.390625 -0.390625 0.953125 -1.265625zm-3.515625 -2.828125q0.921875 -0.46875 1.296875 -0.953125q0.265625 -0.34375 0.265625 -0.6875q0 -0.328125 -0.21875 -0.53125q-0.21875 -0.203125 -0.59375 -0.203125q-0.46875 0 -0.78125 0.328125q-0.3125 0.3125 -0.3125 0.84375q0 0.5 0.34375 1.203125zm-1.078125 2.5q-1.546875 0.78125 -1.546875 2.046875q0 0.71875 0.453125 1.1875q0.46875 0.453125 1.234375 0.453125q0.921875 0 1.90625 -0.65625q-1.171875 -1.4375 -2.046875 -3.03125zm11.265625 2.984375l2.171875 -0.34375q0.28125 0.6875 0.703125 0.984375q0.4375 0.28125 1.1875 0.28125q0.765625 0 1.21875 -0.34375q0.328125 -0.234375 0.328125 -0.578125q0 -0.21875 -0.171875 -0.40625q-0.171875 -0.171875 -0.921875 -0.421875q-2.03125 -0.671875 -2.515625 -1.0625q-0.765625 -0.609375 -0.765625 -1.59375q0 -0.984375 0.734375 -1.6875q1.03125 -1.0 3.046875 -1.0q1.59375 0 2.40625 0.59375q0.828125 0.578125 1.046875 1.578125l-2.0625 0.359375q-0.171875 -0.453125 -0.53125 -0.671875q-0.5 -0.3125 -1.203125 -0.3125q-0.703125 0 -1.015625 0.234375q-0.3125 0.234375 -0.3125 0.546875q0 0.3125 0.3125 0.515625q0.203125 0.125 1.265625 0.4375q1.640625 0.46875 2.1875 0.9375q0.78125 0.640625 0.78125 1.5625q0 1.171875 -1.0 2.046875q-0.984375 0.875 -2.78125 0.875q-1.796875 0 -2.78125 -0.65625q-0.984375 -0.671875 -1.328125 -1.875zm10.8515625 -5.96875l2.125 0l-0.1875 0.84375q0.6875 -0.5625 1.28125 -0.796875q0.59375 -0.25 1.265625 -0.25q1.3125 0 2.09375 0.90625q0.796875 0.890625 0.796875 2.671875q0 2.25 -1.359375 3.796875q-1.171875 1.328125 -2.78125 1.328125q-1.640625 0 -2.484375 -1.34375l-0.90625 4.3125l-2.25 0l2.40625 -11.46875zm1.34375 4.75q0 0.96875 0.46875 1.515625q0.484375 0.53125 1.125 0.53125q0.546875 0 1.0625 -0.40625q0.515625 -0.40625 0.859375 -1.328125q0.34375 -0.9375 0.34375 -1.734375q0 -0.9375 -0.453125 -1.421875q-0.4375 -0.5 -1.125 -0.5q-0.640625 0 -1.171875 0.453125q-0.53125 0.453125 -0.828125 1.34375q-0.28125 0.890625 -0.28125 1.546875zm9.9296875 -2.40625l-2.1875 -0.1875q0.375 -1.109375 1.296875 -1.734375q0.9375 -0.625 2.484375 -0.625q1.59375 0 2.359375 0.65625q0.765625 0.640625 0.765625 1.5625q0 0.375 -0.0625 0.796875q-0.0625 0.421875 -0.46875 2.21875q-0.328125 1.484375 -0.328125 2.078125q0 0.53125 0.1875 1.1875l-2.171875 0q-0.140625 -0.453125 -0.171875 -0.9375q-0.484375 0.546875 -1.125 0.84375q-0.640625 0.296875 -1.296875 0.296875q-1.03125 0 -1.703125 -0.671875q-0.671875 -0.6875 -0.671875 -1.75q0 -1.1875 0.734375 -1.890625q0.75 -0.71875 2.640625 -0.875q1.609375 -0.125 2.140625 -0.3125q0.140625 -0.46875 0.140625 -0.75q0 -0.359375 -0.296875 -0.59375q-0.28125 -0.25 -0.84375 -0.25q-0.609375 0 -0.953125 0.25q-0.34375 0.234375 -0.46875 0.6875zm2.125 2.078125q-0.203125 0.0625 -0.53125 0.109375q-1.6875 0.203125 -2.203125 0.59375q-0.375 0.28125 -0.375 0.75q0 0.390625 0.28125 0.671875q0.28125 0.265625 0.75 0.265625q0.5 0 0.953125 -0.25q0.453125 -0.25 0.671875 -0.625q0.21875 -0.390625 0.390625 -1.21875l0.0625 -0.296875zm9.2265625 0.75l2.1875 0.34375q-0.546875 1.453125 -1.609375 2.21875q-1.046875 0.765625 -2.4375 0.765625q-1.578125 0 -2.515625 -0.953125q-0.921875 -0.953125 -0.921875 -2.609375q0 -1.34375 0.5625 -2.546875q0.5625 -1.203125 1.6875 -1.890625q1.140625 -0.703125 2.484375 -0.703125q1.46875 0 2.34375 0.765625q0.875 0.765625 0.984375 2.015625l-2.125 0.234375q-0.078125 -0.703125 -0.4375 -1.03125q-0.34375 -0.328125 -0.90625 -0.328125q-0.640625 0 -1.203125 0.484375q-0.5625 0.484375 -0.875 1.453125q-0.296875 0.96875 -0.296875 1.8125q0 0.734375 0.359375 1.140625q0.359375 0.390625 0.90625 0.390625q0.53125 0 1.03125 -0.390625q0.5 -0.390625 0.78125 -1.171875zm5.6640625 -8.328125l2.25 0l-0.421875 2.03125l-2.25 0l0.421875 -2.03125zm-0.65625 3.15625l2.25 0l-1.734375 8.296875l-2.25 0l1.734375 -8.296875zm4.4765625 0l2.125 0l-0.21875 1.078125q0.796875 -0.6875 1.484375 -0.984375q0.703125 -0.296875 1.46875 -0.296875q1.015625 0 1.609375 0.59375q0.59375 0.578125 0.59375 1.546875q0 0.4375 -0.265625 1.65625l-0.96875 4.703125l-2.25 0l0.984375 -4.71875q0.21875 -1.046875 0.21875 -1.25q0 -0.4375 -0.25 -0.671875q-0.25 -0.25 -0.703125 -0.25q-0.5 0 -1.109375 0.421875q-0.59375 0.40625 -0.9375 1.078125q-0.25 0.484375 -0.5625 1.984375l-0.703125 3.40625l-2.25 0l1.734375 -8.296875zm7.8984375 8.734375l2.359375 0.34375q0 0.359375 0.109375 0.546875q0.125 0.1875 0.390625 0.3125q0.265625 0.125 0.71875 0.125q0.703125 0 1.140625 -0.28125q0.3125 -0.21875 0.515625 -0.703125q0.125 -0.296875 0.328125 -1.328125l0.078125 -0.390625q-1.171875 0.96875 -2.40625 0.96875q-1.21875 0 -2.0 -0.859375q-0.78125 -0.859375 -0.78125 -2.515625q0 -1.46875 0.53125 -2.6875q0.53125 -1.21875 1.484375 -1.84375q0.96875 -0.625 1.96875 -0.625q0.828125 0 1.515625 0.4375q0.6875 0.4375 1.0625 1.234375l0.3125 -1.46875l2.109375 0l-1.4375 6.90625q-0.359375 1.671875 -0.609375 2.375q-0.234375 0.71875 -0.546875 1.140625q-0.3125 0.421875 -0.796875 0.703125q-0.46875 0.296875 -1.125 0.421875q-0.640625 0.125 -1.390625 0.125q-1.765625 0 -2.671875 -0.609375q-0.890625 -0.59375 -0.890625 -2.0q0 -0.140625 0.03125 -0.328125zm2.640625 -4.015625q0 0.953125 0.421875 1.453125q0.421875 0.484375 1.0625 0.484375q0.59375 0 1.140625 -0.4375q0.546875 -0.453125 0.84375 -1.265625q0.296875 -0.828125 0.296875 -1.59375q0 -0.875 -0.484375 -1.40625q-0.46875 -0.546875 -1.09375 -0.546875q-0.609375 0 -1.109375 0.484375q-0.5 0.46875 -0.828125 1.453125q-0.25 0.765625 -0.25 1.375zm8.4921875 -8.078125l1.515625 0q0.640625 1.484375 0.953125 3.015625q0.3125 1.53125 0.3125 2.796875q0 1.59375 -0.515625 3.203125q-0.515625 1.609375 -1.5625 3.28125q-0.671875 1.0625 -2.140625 2.734375l-1.703125 0q1.484375 -1.75 2.296875 -3.296875q0.8125 -1.53125 1.203125 -3.34375q0.40625 -1.8125 0.40625 -3.5625q0 -1.171875 -0.171875 -2.28125q-0.171875 -1.109375 -0.59375 -2.546875z"
      fill-rule="nonzero" />
    <path fill="#000000" fill-opacity="0.0" d="m623.03 207.96193l-37.19684 0.15748596" fill-rule="evenodd" />
    <path stroke="#000000" stroke-width="4.0" stroke-miterlimit="800.0" stroke-linecap="butt"
      d="m623.03 207.96194l-13.1970825 0.055877686" fill-rule="evenodd" />
    <path fill="#000000" stroke="#000000" stroke-width="4.0" stroke-linecap="butt"
      d="m609.805 201.41095l-18.124268 6.683716l18.180176 6.530014z" fill-rule="evenodd" />
    <path fill="#000000" fill-opacity="0.0" d="m151.6483 333.27435l662.1102 0" fill-rule="evenodd" />
    <path stroke="#a5a5a5" stroke-width="4.0" stroke-miterlimit="800.0" stroke-linecap="butt"
      stroke-dasharray="16.0,12.0" d="m151.6483 333.27435l662.1102 0" fill-rule="evenodd" />
    <path fill="#000000" fill-opacity="0.0" d="m283.86783 156.96129l35.055115 10.929138" fill-rule="evenodd" />
    <path stroke="#000000" stroke-width="4.0" stroke-miterlimit="800.0" stroke-linecap="butt"
      d="m283.86783 156.9613l12.142822 3.7857666" fill-rule="evenodd" />
    <path fill="#000000" stroke="#000000" stroke-width="4.0" stroke-linecap="butt"
      d="m294.0442 167.05457l19.296173 -0.9046173l-15.36322 -11.710373z" fill-rule="evenodd" />
    <path fill="#000000" fill-opacity="0.0" d="m283.86783 215.44707l35.055115 -11.81102" fill-rule="evenodd" />
    <path stroke="#000000" stroke-width="4.0" stroke-miterlimit="800.0" stroke-linecap="butt"
      d="m283.86783 215.44708l12.31134 -4.148041" fill-rule="evenodd" />
    <path fill="#000000" stroke="#000000" stroke-width="4.0" stroke-linecap="butt"
      d="m298.28873 217.56015l15.092682 -12.057007l-19.311768 -0.4651947z" fill-rule="evenodd" />
    <path fill="#000000" fill-opacity="0.0" d="m283.86783 281.60852l35.055115 -45.13385" fill-rule="evenodd" />
    <path stroke="#000000" stroke-width="4.0" stroke-miterlimit="800.0" stroke-linecap="butt"
      d="m283.86783 281.60852l20.333374 -26.179428" fill-rule="evenodd" />
    <path fill="#000000" stroke="#000000" stroke-width="4.0" stroke-linecap="butt"
      d="m309.41913 259.48184l5.9168396 -18.388916l-16.352722 10.283432z" fill-rule="evenodd" />
    <path fill="#000000" fill-opacity="0.0" d="m121.91507 132.72507l161.95276 0l0 48.472443l-161.95276 0z"
      fill-rule="evenodd" />
    <path fill="#000000"
      d="m200.61783 152.08507l-2.359375 0l2.40625 -11.453125l5.078125 0q1.3125 0 2.046875 0.265625q0.734375 0.265625 1.171875 0.984375q0.453125 0.71875 0.453125 1.75q0 1.453125 -0.875 2.40625q-0.875 0.953125 -2.640625 1.171875q0.453125 0.40625 0.84375 1.078125q0.796875 1.34375 1.765625 3.796875l-2.53125 0q-0.3125 -0.96875 -1.203125 -3.03125q-0.484375 -1.109375 -1.03125 -1.484375q-0.328125 -0.234375 -1.171875 -0.234375l-0.953125 0l-1.0 4.75zm1.359375 -6.46875l1.25 0q1.890625 0 2.515625 -0.21875q0.625 -0.234375 0.96875 -0.71875q0.359375 -0.484375 0.359375 -1.015625q0 -0.625 -0.515625 -0.9375q-0.3125 -0.1875 -1.34375 -0.1875l-2.59375 0l-0.640625 3.078125zm10.1953125 6.46875l-2.359375 0l2.40625 -11.453125l5.078125 0q1.3125 0 2.046875 0.265625q0.734375 0.265625 1.171875 0.984375q0.453125 0.71875 0.453125 1.75q0 1.453125 -0.875 2.40625q-0.875 0.953125 -2.640625 1.171875q0.453125 0.40625 0.84375 1.078125q0.796875 1.34375 1.765625 3.796875l-2.53125 0q-0.3125 -0.96875 -1.203125 -3.03125q-0.484375 -1.109375 -1.03125 -1.484375q-0.328125 -0.234375 -1.171875 -0.234375l-0.953125 0l-1.0 4.75zm1.359375 -6.46875l1.25 0q1.890625 0 2.515625 -0.21875q0.625 -0.234375 0.96875 -0.71875q0.359375 -0.484375 0.359375 -1.015625q0 -0.625 -0.515625 -0.9375q-0.3125 -0.1875 -1.34375 -0.1875l-2.59375 0l-0.640625 3.078125zm15.2890625 3.9375l-4.53125 0l-1.375 2.53125l-2.4375 0l6.484375 -11.453125l2.625 0l1.859375 11.453125l-2.234375 0l-0.390625 -2.53125zm-0.28125 -1.90625l-0.671875 -4.609375l-2.765625 4.609375l3.4375 0zm10.9296875 4.4375l-2.234375 0l-0.421875 -9.578125l-1.8125 9.578125l-2.125 0l2.390625 -11.453125l3.359375 0l0.34375 8.015625l3.90625 -8.015625l3.40625 0l-2.40625 11.453125l-2.140625 0l2.25 -9.5l-4.515625 9.5zm11.7265625 -6.640625l0.34375 -1.65625l1.09375 0l0.28125 -1.328125l2.5625 -1.546875l-0.59375 2.875l1.359375 0l-0.34375 1.65625l-1.375 0l-0.71875 3.484375q-0.203125 0.9375 -0.203125 1.078125q0 0.25 0.15625 0.40625q0.171875 0.140625 0.609375 0.140625q0.140625 0 0.734375 -0.0625l-0.34375 1.671875q-0.578125 0.125 -1.1875 0.125q-1.1875 0 -1.734375 -0.453125q-0.53125 -0.46875 -0.53125 -1.28125q0 -0.390625 0.28125 -1.765625l0.703125 -3.34375l-1.09375 0zm5.09375 3.1875q0 -2.296875 1.296875 -3.671875q1.3125 -1.375 3.421875 -1.375q1.84375 0 2.875 1.015625q1.03125 1.015625 1.03125 2.71875q0 2.015625 -1.296875 3.5q-1.28125 1.46875 -3.453125 1.46875q-1.171875 0 -2.078125 -0.46875q-0.90625 -0.484375 -1.359375 -1.34375q-0.4375 -0.859375 -0.4375 -1.84375zm6.390625 -1.59375q0 -0.796875 -0.46875 -1.28125q-0.453125 -0.484375 -1.1875 -0.484375q-0.734375 0 -1.296875 0.453125q-0.5625 0.453125 -0.875 1.3125q-0.3125 0.84375 -0.3125 1.5625q0 0.890625 0.484375 1.421875q0.484375 0.515625 1.21875 0.515625q0.921875 0 1.546875 -0.78125q0.890625 -1.125 0.890625 -2.71875zm4.7265625 -3.25l2.125 0l-0.1875 0.84375q0.6875 -0.5625 1.28125 -0.796875q0.59375 -0.25 1.265625 -0.25q1.3125 0 2.09375 0.90625q0.796875 0.890625 0.796875 2.671875q0 2.25 -1.359375 3.796875q-1.171875 1.328125 -2.78125 1.328125q-1.640625 0 -2.484375 -1.34375l-0.90625 4.3125l-2.25 0l2.40625 -11.46875zm1.34375 4.75q0 0.96875 0.46875 1.515625q0.484375 0.53125 1.125 0.53125q0.546875 0 1.0625 -0.40625q0.515625 -0.40625 0.859375 -1.328125q0.34375 -0.9375 0.34375 -1.734375q0 -0.9375 -0.453125 -1.421875q-0.4375 -0.5 -1.125 -0.5q-0.640625 0 -1.171875 0.453125q-0.53125 0.453125 -0.828125 1.34375q-0.28125 0.890625 -0.28125 1.546875z"
      fill-rule="nonzero" />
    <path fill="#000000"
      d="m212.44595 167.83195l-5.625 0q0 0.125 0 0.203125q0 0.828125 0.46875 1.34375q0.46875 0.5 1.15625 0.5q1.109375 0 1.734375 -1.15625l2.015625 0.328125q-0.59375 1.21875 -1.578125 1.828125q-0.96875 0.609375 -2.1875 0.609375q-1.671875 0 -2.71875 -1.0625q-1.046875 -1.0625 -1.046875 -2.8125q0 -1.703125 0.9375 -3.03125q1.296875 -1.796875 3.6875 -1.796875q1.515625 0 2.40625 0.953125q0.90625 0.9375 0.90625 2.625q0 0.8125 -0.15625 1.46875zm-1.890625 -1.375q0.015625 -0.140625 0.015625 -0.21875q0 -0.921875 -0.421875 -1.375q-0.40625 -0.46875 -1.109375 -0.46875q-0.6875 0 -1.25 0.53125q-0.546875 0.515625 -0.734375 1.53125l3.5 0zm2.6953125 4.828125l2.40625 -11.453125l2.234375 0l-2.390625 11.453125l-2.25 0zm12.5390625 -3.453125l-5.625 0q0 0.125 0 0.203125q0 0.828125 0.46875 1.34375q0.46875 0.5 1.15625 0.5q1.109375 0 1.734375 -1.15625l2.015625 0.328125q-0.59375 1.21875 -1.578125 1.828125q-0.96875 0.609375 -2.1875 0.609375q-1.671875 0 -2.71875 -1.0625q-1.046875 -1.0625 -1.046875 -2.8125q0 -1.703125 0.9375 -3.03125q1.296875 -1.796875 3.6875 -1.796875q1.515625 0 2.40625 0.953125q0.90625 0.9375 0.90625 2.625q0 0.8125 -0.15625 1.46875zm-1.890625 -1.375q0.015625 -0.140625 0.015625 -0.21875q0 -0.921875 -0.421875 -1.375q-0.40625 -0.46875 -1.109375 -0.46875q-0.6875 0 -1.25 0.53125q-0.546875 0.515625 -0.734375 1.53125l3.5 0zm8.3359375 1.703125l2.1875 0.34375q-0.546875 1.453125 -1.609375 2.21875q-1.046875 0.765625 -2.4375 0.765625q-1.578125 0 -2.515625 -0.953125q-0.921875 -0.953125 -0.921875 -2.609375q0 -1.34375 0.5625 -2.546875q0.5625 -1.203125 1.6875 -1.890625q1.140625 -0.703125 2.484375 -0.703125q1.46875 0 2.34375 0.765625q0.875 0.765625 0.984375 2.015625l-2.125 0.234375q-0.078125 -0.703125 -0.4375 -1.03125q-0.34375 -0.328125 -0.90625 -0.328125q-0.640625 0 -1.203125 0.484375q-0.5625 0.484375 -0.875 1.453125q-0.296875 0.96875 -0.296875 1.8125q0 0.734375 0.359375 1.140625q0.359375 0.390625 0.90625 0.390625q0.53125 0 1.03125 -0.390625q0.5 -0.390625 0.78125 -1.171875zm3.8359375 -3.515625l0.34375 -1.65625l1.09375 0l0.28125 -1.328125l2.5625 -1.546875l-0.59375 2.875l1.359375 0l-0.34375 1.65625l-1.375 0l-0.71875 3.484375q-0.203125 0.9375 -0.203125 1.078125q0 0.25 0.15625 0.40625q0.171875 0.140625 0.609375 0.140625q0.140625 0 0.734375 -0.0625l-0.34375 1.671875q-0.578125 0.125 -1.1875 0.125q-1.1875 0 -1.734375 -0.453125q-0.53125 -0.46875 -0.53125 -1.28125q0 -0.390625 0.28125 -1.765625l0.703125 -3.34375l-1.09375 0zm6.375 -1.65625l2.09375 0l-0.328125 1.609375q1.171875 -1.8125 2.53125 -1.8125q0.484375 0 1.046875 0.25l-0.859375 1.828125q-0.3125 -0.109375 -0.65625 -0.109375q-0.578125 0 -1.171875 0.4375q-0.59375 0.4375 -0.9375 1.171875q-0.328125 0.734375 -0.65625 2.3125l-0.546875 2.609375l-2.25 0l1.734375 -8.296875zm4.9453125 4.84375q0 -2.296875 1.296875 -3.671875q1.3125 -1.375 3.421875 -1.375q1.84375 0 2.875 1.015625q1.03125 1.015625 1.03125 2.71875q0 2.015625 -1.296875 3.5q-1.28125 1.46875 -3.453125 1.46875q-1.171875 0 -2.078125 -0.46875q-0.90625 -0.484375 -1.359375 -1.34375q-0.4375 -0.859375 -0.4375 -1.84375zm6.390625 -1.59375q0 -0.796875 -0.46875 -1.28125q-0.453125 -0.484375 -1.1875 -0.484375q-0.734375 0 -1.296875 0.453125q-0.5625 0.453125 -0.875 1.3125q-0.3125 0.84375 -0.3125 1.5625q0 0.890625 0.484375 1.421875q0.484375 0.515625 1.21875 0.515625q0.921875 0 1.546875 -0.78125q0.890625 -1.125 0.890625 -2.71875zm10.7265625 5.046875l-2.125 0l0.1875 -0.90625q-0.609375 0.59375 -1.203125 0.859375q-0.59375 0.25 -1.328125 0.25q-1.296875 0 -2.09375 -0.875q-0.796875 -0.890625 -0.796875 -2.609375q0 -2.0 1.125 -3.609375q1.125 -1.609375 2.96875 -1.609375q1.671875 0 2.515625 1.328125l0.890625 -4.28125l2.25 0l-2.390625 11.453125zm-5.1875 -3.375q0 0.890625 0.453125 1.390625q0.453125 0.5 1.109375 0.5q0.609375 0 1.125 -0.421875q0.53125 -0.421875 0.84375 -1.28125q0.328125 -0.859375 0.328125 -1.640625q0 -0.90625 -0.484375 -1.453125q-0.484375 -0.5625 -1.125 -0.5625q-0.984375 0 -1.625 1.09375q-0.625 1.09375 -0.625 2.375zm15.3671875 -0.078125l-5.625 0q0 0.125 0 0.203125q0 0.828125 0.46875 1.34375q0.46875 0.5 1.15625 0.5q1.109375 0 1.734375 -1.15625l2.015625 0.328125q-0.59375 1.21875 -1.578125 1.828125q-0.96875 0.609375 -2.1875 0.609375q-1.671875 0 -2.71875 -1.0625q-1.046875 -1.0625 -1.046875 -2.8125q0 -1.703125 0.9375 -3.03125q1.296875 -1.796875 3.6875 -1.796875q1.515625 0 2.40625 0.953125q0.90625 0.9375 0.90625 2.625q0 0.8125 -0.15625 1.46875zm-1.890625 -1.375q0.015625 -0.140625 0.015625 -0.21875q0 -0.921875 -0.421875 -1.375q-0.40625 -0.46875 -1.109375 -0.46875q-0.6875 0 -1.25 0.53125q-0.546875 0.515625 -0.734375 1.53125l3.5 0z"
      fill-rule="nonzero" />
    <path fill="#000000" fill-opacity="0.0" d="m121.91507 200.91164l161.95276 0l0 29.070862l-161.95276 0z"
      fill-rule="evenodd" />
    <path fill="#000000"
      d="m183.70377 220.27164l-2.359375 0l2.40625 -11.453125l5.078125 0q1.3125 0 2.046875 0.265625q0.734375 0.265625 1.171875 0.984375q0.453125 0.71875 0.453125 1.75q0 1.453125 -0.875 2.40625q-0.875 0.953125 -2.640625 1.171875q0.453125 0.40625 0.84375 1.078125q0.796875 1.34375 1.765625 3.796875l-2.53125 0q-0.3125 -0.96875 -1.203125 -3.03125q-0.484375 -1.109375 -1.03125 -1.484375q-0.328125 -0.234375 -1.171875 -0.234375l-0.953125 0l-1.0 4.75zm1.359375 -6.46875l1.25 0q1.890625 0 2.515625 -0.21875q0.625 -0.234375 0.96875 -0.71875q0.359375 -0.484375 0.359375 -1.015625q0 -0.625 -0.515625 -0.9375q-0.3125 -0.1875 -1.34375 -0.1875l-2.59375 0l-0.640625 3.078125zm10.1953125 6.46875l-2.359375 0l2.40625 -11.453125l5.078125 0q1.3125 0 2.046875 0.265625q0.734375 0.265625 1.171875 0.984375q0.453125 0.71875 0.453125 1.75q0 1.453125 -0.875 2.40625q-0.875 0.953125 -2.640625 1.171875q0.453125 0.40625 0.84375 1.078125q0.796875 1.34375 1.765625 3.796875l-2.53125 0q-0.3125 -0.96875 -1.203125 -3.03125q-0.484375 -1.109375 -1.03125 -1.484375q-0.328125 -0.234375 -1.171875 -0.234375l-0.953125 0l-1.0 4.75zm1.359375 -6.46875l1.25 0q1.890625 0 2.515625 -0.21875q0.625 -0.234375 0.96875 -0.71875q0.359375 -0.484375 0.359375 -1.015625q0 -0.625 -0.515625 -0.9375q-0.3125 -0.1875 -1.34375 -0.1875l-2.59375 0l-0.640625 3.078125zm15.2890625 3.9375l-4.53125 0l-1.375 2.53125l-2.4375 0l6.484375 -11.453125l2.625 0l1.859375 11.453125l-2.234375 0l-0.390625 -2.53125zm-0.28125 -1.90625l-0.671875 -4.609375l-2.765625 4.609375l3.4375 0zm10.9296875 4.4375l-2.234375 0l-0.421875 -9.578125l-1.8125 9.578125l-2.125 0l2.390625 -11.453125l3.359375 0l0.34375 8.015625l3.90625 -8.015625l3.40625 0l-2.40625 11.453125l-2.140625 0l2.25 -9.5l-4.515625 9.5zm11.4921875 -3.453125q0 -2.296875 1.296875 -3.671875q1.3125 -1.375 3.421875 -1.375q1.84375 0 2.875 1.015625q1.03125 1.015625 1.03125 2.71875q0 2.015625 -1.296875 3.5q-1.28125 1.46875 -3.453125 1.46875q-1.171875 0 -2.078125 -0.46875q-0.90625 -0.484375 -1.359375 -1.34375q-0.4375 -0.859375 -0.4375 -1.84375zm6.390625 -1.59375q0 -0.796875 -0.46875 -1.28125q-0.453125 -0.484375 -1.1875 -0.484375q-0.734375 0 -1.296875 0.453125q-0.5625 0.453125 -0.875 1.3125q-0.3125 0.84375 -0.3125 1.5625q0 0.890625 0.484375 1.421875q0.484375 0.515625 1.21875 0.515625q0.921875 0 1.546875 -0.78125q0.890625 -1.125 0.890625 -2.71875zm6.8828125 2.71875l-2.0625 2.328125l-2.765625 0l3.84375 -4.25l-2.109375 -4.046875l2.390625 0l1.203125 2.359375l2.109375 -2.359375l2.71875 0l-3.84375 4.296875l2.09375 4.0l-2.390625 0l-1.1875 -2.328125zm7.4609375 -9.125l2.25 0l-0.421875 2.03125l-2.25 0l0.421875 -2.03125zm-0.65625 3.15625l2.25 0l-1.734375 8.296875l-2.25 0l1.734375 -8.296875zm10.3828125 8.296875l-2.125 0l0.1875 -0.90625q-0.609375 0.59375 -1.203125 0.859375q-0.59375 0.25 -1.328125 0.25q-1.296875 0 -2.09375 -0.875q-0.796875 -0.890625 -0.796875 -2.609375q0 -2.0 1.125 -3.609375q1.125 -1.609375 2.96875 -1.609375q1.671875 0 2.515625 1.328125l0.890625 -4.28125l2.25 0l-2.390625 11.453125zm-5.1875 -3.375q0 0.890625 0.453125 1.390625q0.453125 0.5 1.109375 0.5q0.609375 0 1.125 -0.421875q0.53125 -0.421875 0.84375 -1.28125q0.328125 -0.859375 0.328125 -1.640625q0 -0.90625 -0.484375 -1.453125q-0.484375 -0.5625 -1.125 -0.5625q-0.984375 0 -1.625 1.09375q-0.625 1.09375 -0.625 2.375zm15.3671875 -0.078125l-5.625 0q0 0.125 0 0.203125q0 0.828125 0.46875 1.34375q0.46875 0.5 1.15625 0.5q1.109375 0 1.734375 -1.15625l2.015625 0.328125q-0.59375 1.21875 -1.578125 1.828125q-0.96875 0.609375 -2.1875 0.609375q-1.671875 0 -2.71875 -1.0625q-1.046875 -1.0625 -1.046875 -2.8125q0 -1.703125 0.9375 -3.03125q1.296875 -1.796875 3.6875 -1.796875q1.515625 0 2.40625 0.953125q0.90625 0.9375 0.90625 2.625q0 0.8125 -0.15625 1.46875zm-1.890625 -1.375q0.015625 -0.140625 0.015625 -0.21875q0 -0.921875 -0.421875 -1.375q-0.40625 -0.46875 -1.109375 -0.46875q-0.6875 0 -1.25 0.53125q-0.546875 0.515625 -0.734375 1.53125l3.5 0z"
      fill-rule="nonzero" />
    <path fill="#000000" fill-opacity="0.0" d="m121.91507 257.3723l161.95276 0l0 48.472443l-161.95276 0z"
      fill-rule="evenodd" />
    <path fill="#000000"
      d="m171.2897 276.7323l-2.359375 0l2.40625 -11.453125l5.078125 0q1.3125 0 2.046875 0.265625q0.734375 0.265625 1.171875 0.984375q0.453125 0.71875 0.453125 1.75q0 1.453125 -0.875 2.40625q-0.875 0.953125 -2.640625 1.171875q0.453125 0.40625 0.84375 1.078125q0.796875 1.34375 1.765625 3.796875l-2.53125 0q-0.3125 -0.96875 -1.203125 -3.03125q-0.484375 -1.109375 -1.03125 -1.484375q-0.328125 -0.234375 -1.171875 -0.234375l-0.953125 0l-1.0 4.75zm1.359375 -6.46875l1.25 0q1.890625 0 2.515625 -0.21875q0.625 -0.234375 0.96875 -0.71875q0.359375 -0.484375 0.359375 -1.015625q0 -0.625 -0.515625 -0.9375q-0.3125 -0.1875 -1.34375 -0.1875l-2.59375 0l-0.640625 3.078125zm10.1953125 6.46875l-2.359375 0l2.40625 -11.453125l5.078125 0q1.3125 0 2.046875 0.265625q0.734375 0.265625 1.171875 0.984375q0.453125 0.71875 0.453125 1.75q0 1.453125 -0.875 2.40625q-0.875 0.953125 -2.640625 1.171875q0.453125 0.40625 0.84375 1.078125q0.796875 1.34375 1.765625 3.796875l-2.53125 0q-0.3125 -0.96875 -1.203125 -3.03125q-0.484375 -1.109375 -1.03125 -1.484375q-0.328125 -0.234375 -1.171875 -0.234375l-0.953125 0l-1.0 4.75zm1.359375 -6.46875l1.25 0q1.890625 0 2.515625 -0.21875q0.625 -0.234375 0.96875 -0.71875q0.359375 -0.484375 0.359375 -1.015625q0 -0.625 -0.515625 -0.9375q-0.3125 -0.1875 -1.34375 -0.1875l-2.59375 0l-0.640625 3.078125zm15.2890625 3.9375l-4.53125 0l-1.375 2.53125l-2.4375 0l6.484375 -11.453125l2.625 0l1.859375 11.453125l-2.234375 0l-0.390625 -2.53125zm-0.28125 -1.90625l-0.671875 -4.609375l-2.765625 4.609375l3.4375 0zm10.9296875 4.4375l-2.234375 0l-0.421875 -9.578125l-1.8125 9.578125l-2.125 0l2.390625 -11.453125l3.359375 0l0.34375 8.015625l3.90625 -8.015625l3.40625 0l-2.40625 11.453125l-2.140625 0l2.25 -9.5l-4.515625 9.5zm11.1015625 0l2.390625 -11.453125l2.25 0l-0.796875 3.828125q0.609375 -0.46875 1.140625 -0.671875q0.546875 -0.203125 1.171875 -0.203125q1.3125 0 2.09375 0.890625q0.796875 0.875 0.796875 2.546875q0 1.140625 -0.375 2.203125q-0.359375 1.0625 -0.984375 1.734375q-0.625 0.671875 -1.3125 1.0q-0.671875 0.328125 -1.421875 0.328125q-1.78125 0 -2.625 -1.578125l-0.28125 1.375l-2.046875 0zm3.03125 -3.390625q0 0.84375 0.46875 1.375q0.46875 0.515625 1.109375 0.515625q0.5625 0 1.078125 -0.40625q0.515625 -0.40625 0.84375 -1.296875q0.34375 -0.890625 0.34375 -1.796875q0 -0.890625 -0.453125 -1.390625q-0.453125 -0.5 -1.109375 -0.5q-0.84375 0 -1.453125 0.78125q-0.828125 1.0625 -0.828125 2.71875zm7.1328125 -0.0625q0 -2.296875 1.296875 -3.671875q1.3125 -1.375 3.421875 -1.375q1.84375 0 2.875 1.015625q1.03125 1.015625 1.03125 2.71875q0 2.015625 -1.296875 3.5q-1.28125 1.46875 -3.453125 1.46875q-1.171875 0 -2.078125 -0.46875q-0.90625 -0.484375 -1.359375 -1.34375q-0.4375 -0.859375 -0.4375 -1.84375zm6.390625 -1.59375q0 -0.796875 -0.46875 -1.28125q-0.453125 -0.484375 -1.1875 -0.484375q-0.734375 0 -1.296875 0.453125q-0.5625 0.453125 -0.875 1.3125q-0.3125 0.84375 -0.3125 1.5625q0 0.890625 0.484375 1.421875q0.484375 0.515625 1.21875 0.515625q0.921875 0 1.546875 -0.78125q0.890625 -1.125 0.890625 -2.71875zm3.6171875 -1.59375l0.34375 -1.65625l1.09375 0l0.28125 -1.328125l2.5625 -1.546875l-0.59375 2.875l1.359375 0l-0.34375 1.65625l-1.375 0l-0.71875 3.484375q-0.203125 0.9375 -0.203125 1.078125q0 0.25 0.15625 0.40625q0.171875 0.140625 0.609375 0.140625q0.140625 0 0.734375 -0.0625l-0.34375 1.671875q-0.578125 0.125 -1.1875 0.125q-1.1875 0 -1.734375 -0.453125q-0.53125 -0.46875 -0.53125 -1.28125q0 -0.390625 0.28125 -1.765625l0.703125 -3.34375l-1.09375 0zm5.328125 0l0.34375 -1.65625l1.09375 0l0.28125 -1.328125l2.5625 -1.546875l-0.59375 2.875l1.359375 0l-0.34375 1.65625l-1.375 0l-0.71875 3.484375q-0.203125 0.9375 -0.203125 1.078125q0 0.25 0.15625 0.40625q0.171875 0.140625 0.609375 0.140625q0.140625 0 0.734375 -0.0625l-0.34375 1.671875q-0.578125 0.125 -1.1875 0.125q-1.1875 0 -1.734375 -0.453125q-0.53125 -0.46875 -0.53125 -1.28125q0 -0.390625 0.28125 -1.765625l0.703125 -3.34375l-1.09375 0zm5.09375 3.1875q0 -2.296875 1.296875 -3.671875q1.3125 -1.375 3.421875 -1.375q1.84375 0 2.875 1.015625q1.03125 1.015625 1.03125 2.71875q0 2.015625 -1.296875 3.5q-1.28125 1.46875 -3.453125 1.46875q-1.171875 0 -2.078125 -0.46875q-0.90625 -0.484375 -1.359375 -1.34375q-0.4375 -0.859375 -0.4375 -1.84375zm6.390625 -1.59375q0 -0.796875 -0.46875 -1.28125q-0.453125 -0.484375 -1.1875 -0.484375q-0.734375 0 -1.296875 0.453125q-0.5625 0.453125 -0.875 1.3125q-0.3125 0.84375 -0.3125 1.5625q0 0.890625 0.484375 1.421875q0.484375 0.515625 1.21875 0.515625q0.921875 0 1.546875 -0.78125q0.890625 -1.125 0.890625 -2.71875zm4.7265625 -3.25l2.109375 0l-0.21875 1.0q1.234375 -1.203125 2.59375 -1.203125q0.9375 0 1.4375 0.390625q0.515625 0.390625 0.65625 1.078125q0.4375 -0.625 1.234375 -1.046875q0.8125 -0.421875 1.671875 -0.421875q1.0 0 1.546875 0.53125q0.5625 0.53125 0.5625 1.40625q0 0.4375 -0.21875 1.484375l-1.0625 5.078125l-2.25 0l1.0625 -5.078125q0.203125 -0.953125 0.203125 -1.078125q0 -0.34375 -0.21875 -0.53125q-0.203125 -0.203125 -0.609375 -0.203125q-0.84375 0 -1.5 0.875q-0.46875 0.640625 -0.8125 2.25l-0.78125 3.765625l-2.25 0l1.046875 -5.015625q0.1875 -0.875 0.1875 -1.125q0 -0.328125 -0.234375 -0.53125q-0.21875 -0.21875 -0.609375 -0.21875q-0.359375 0 -0.75 0.21875q-0.390625 0.21875 -0.6875 0.609375q-0.296875 0.375 -0.5 0.96875q-0.09375 0.28125 -0.3125 1.28125l-0.796875 3.8125l-2.234375 0l1.734375 -8.296875z"
      fill-rule="nonzero" />
    <path fill="#000000"
      d="m212.44595 292.4792l-5.625 0q0 0.125 0 0.203125q0 0.828125 0.46875 1.34375q0.46875 0.5 1.15625 0.5q1.109375 0 1.734375 -1.15625l2.015625 0.328125q-0.59375 1.21875 -1.578125 1.828125q-0.96875 0.609375 -2.1875 0.609375q-1.671875 0 -2.71875 -1.0625q-1.046875 -1.0625 -1.046875 -2.8125q0 -1.703125 0.9375 -3.03125q1.296875 -1.796875 3.6875 -1.796875q1.515625 0 2.40625 0.953125q0.90625 0.9375 0.90625 2.625q0 0.8125 -0.15625 1.46875zm-1.890625 -1.375q0.015625 -0.140625 0.015625 -0.21875q0 -0.921875 -0.421875 -1.375q-0.40625 -0.46875 -1.109375 -0.46875q-0.6875 0 -1.25 0.53125q-0.546875 0.515625 -0.734375 1.53125l3.5 0zm2.6953125 4.828125l2.40625 -11.453125l2.234375 0l-2.390625 11.453125l-2.25 0zm12.5390625 -3.453125l-5.625 0q0 0.125 0 0.203125q0 0.828125 0.46875 1.34375q0.46875 0.5 1.15625 0.5q1.109375 0 1.734375 -1.15625l2.015625 0.328125q-0.59375 1.21875 -1.578125 1.828125q-0.96875 0.609375 -2.1875 0.609375q-1.671875 0 -2.71875 -1.0625q-1.046875 -1.0625 -1.046875 -2.8125q0 -1.703125 0.9375 -3.03125q1.296875 -1.796875 3.6875 -1.796875q1.515625 0 2.40625 0.953125q0.90625 0.9375 0.90625 2.625q0 0.8125 -0.15625 1.46875zm-1.890625 -1.375q0.015625 -0.140625 0.015625 -0.21875q0 -0.921875 -0.421875 -1.375q-0.40625 -0.46875 -1.109375 -0.46875q-0.6875 0 -1.25 0.53125q-0.546875 0.515625 -0.734375 1.53125l3.5 0zm8.3359375 1.703125l2.1875 0.34375q-0.546875 1.453125 -1.609375 2.21875q-1.046875 0.765625 -2.4375 0.765625q-1.578125 0 -2.515625 -0.953125q-0.921875 -0.953125 -0.921875 -2.609375q0 -1.34375 0.5625 -2.546875q0.5625 -1.203125 1.6875 -1.890625q1.140625 -0.703125 2.484375 -0.703125q1.46875 0 2.34375 0.765625q0.875 0.765625 0.984375 2.015625l-2.125 0.234375q-0.078125 -0.703125 -0.4375 -1.03125q-0.34375 -0.328125 -0.90625 -0.328125q-0.640625 0 -1.203125 0.484375q-0.5625 0.484375 -0.875 1.453125q-0.296875 0.96875 -0.296875 1.8125q0 0.734375 0.359375 1.140625q0.359375 0.390625 0.90625 0.390625q0.53125 0 1.03125 -0.390625q0.5 -0.390625 0.78125 -1.171875zm3.8359375 -3.515625l0.34375 -1.65625l1.09375 0l0.28125 -1.328125l2.5625 -1.546875l-0.59375 2.875l1.359375 0l-0.34375 1.65625l-1.375 0l-0.71875 3.484375q-0.203125 0.9375 -0.203125 1.078125q0 0.25 0.15625 0.40625q0.171875 0.140625 0.609375 0.140625q0.140625 0 0.734375 -0.0625l-0.34375 1.671875q-0.578125 0.125 -1.1875 0.125q-1.1875 0 -1.734375 -0.453125q-0.53125 -0.46875 -0.53125 -1.28125q0 -0.390625 0.28125 -1.765625l0.703125 -3.34375l-1.09375 0zm6.375 -1.65625l2.09375 0l-0.328125 1.609375q1.171875 -1.8125 2.53125 -1.8125q0.484375 0 1.046875 0.25l-0.859375 1.828125q-0.3125 -0.109375 -0.65625 -0.109375q-0.578125 0 -1.171875 0.4375q-0.59375 0.4375 -0.9375 1.171875q-0.328125 0.734375 -0.65625 2.3125l-0.546875 2.609375l-2.25 0l1.734375 -8.296875zm4.9453125 4.84375q0 -2.296875 1.296875 -3.671875q1.3125 -1.375 3.421875 -1.375q1.84375 0 2.875 1.015625q1.03125 1.015625 1.03125 2.71875q0 2.015625 -1.296875 3.5q-1.28125 1.46875 -3.453125 1.46875q-1.171875 0 -2.078125 -0.46875q-0.90625 -0.484375 -1.359375 -1.34375q-0.4375 -0.859375 -0.4375 -1.84375zm6.390625 -1.59375q0 -0.796875 -0.46875 -1.28125q-0.453125 -0.484375 -1.1875 -0.484375q-0.734375 0 -1.296875 0.453125q-0.5625 0.453125 -0.875 1.3125q-0.3125 0.84375 -0.3125 1.5625q0 0.890625 0.484375 1.421875q0.484375 0.515625 1.21875 0.515625q0.921875 0 1.546875 -0.78125q0.890625 -1.125 0.890625 -2.71875zm10.7265625 5.046875l-2.125 0l0.1875 -0.90625q-0.609375 0.59375 -1.203125 0.859375q-0.59375 0.25 -1.328125 0.25q-1.296875 0 -2.09375 -0.875q-0.796875 -0.890625 -0.796875 -2.609375q0 -2.0 1.125 -3.609375q1.125 -1.609375 2.96875 -1.609375q1.671875 0 2.515625 1.328125l0.890625 -4.28125l2.25 0l-2.390625 11.453125zm-5.1875 -3.375q0 0.890625 0.453125 1.390625q0.453125 0.5 1.109375 0.5q0.609375 0 1.125 -0.421875q0.53125 -0.421875 0.84375 -1.28125q0.328125 -0.859375 0.328125 -1.640625q0 -0.90625 -0.484375 -1.453125q-0.484375 -0.5625 -1.125 -0.5625q-0.984375 0 -1.625 1.09375q-0.625 1.09375 -0.625 2.375zm15.3671875 -0.078125l-5.625 0q0 0.125 0 0.203125q0 0.828125 0.46875 1.34375q0.46875 0.5 1.15625 0.5q1.109375 0 1.734375 -1.15625l2.015625 0.328125q-0.59375 1.21875 -1.578125 1.828125q-0.96875 0.609375 -2.1875 0.609375q-1.671875 0 -2.71875 -1.0625q-1.046875 -1.0625 -1.046875 -2.8125q0 -1.703125 0.9375 -3.03125q1.296875 -1.796875 3.6875 -1.796875q1.515625 0 2.40625 0.953125q0.90625 0.9375 0.90625 2.625q0 0.8125 -0.15625 1.46875zm-1.890625 -1.375q0.015625 -0.140625 0.015625 -0.21875q0 -0.921875 -0.421875 -1.375q-0.40625 -0.46875 -1.109375 -0.46875q-0.6875 0 -1.25 0.53125q-0.546875 0.515625 -0.734375 1.53125l3.5 0z"
      fill-rule="nonzero" />
    <path fill="#0000ff" d="m307.68735 289.44858l383.3386 0l0 42.015747l-383.3386 0z" fill-rule="evenodd" />
    <path stroke="#000000" stroke-width="1.3333333333333333" stroke-miterlimit="800.0" stroke-linecap="butt"
      d="m307.68735 289.44858l383.3386 0l0 42.015747l-383.3386 0z" fill-rule="evenodd" />
    <path fill="#ffffff"
      d="m482.63397 316.21643l0 -8.296875l1.25 0l0 1.15625q0.390625 -0.609375 1.03125 -0.96875q0.65625 -0.375 1.484375 -0.375q0.921875 0 1.515625 0.390625q0.59375 0.375 0.828125 1.0625q0.984375 -1.453125 2.5625 -1.453125q1.234375 0 1.890625 0.6875q0.671875 0.671875 0.671875 2.09375l0 5.703125l-1.390625 0l0 -5.234375q0 -0.84375 -0.140625 -1.203125q-0.140625 -0.375 -0.5 -0.59375q-0.359375 -0.234375 -0.84375 -0.234375q-0.875 0 -1.453125 0.578125q-0.578125 0.578125 -0.578125 1.859375l0 4.828125l-1.40625 0l0 -5.390625q0 -0.9375 -0.34375 -1.40625q-0.34375 -0.46875 -1.125 -0.46875q-0.59375 0 -1.09375 0.3125q-0.5 0.3125 -0.734375 0.921875q-0.21875 0.59375 -0.21875 1.71875l0 4.3125l-1.40625 0zm19.0 -2.671875l1.453125 0.171875q-0.34375 1.28125 -1.28125 1.984375q-0.921875 0.703125 -2.359375 0.703125q-1.828125 0 -2.890625 -1.125q-1.0625 -1.125 -1.0625 -3.140625q0 -2.09375 1.078125 -3.25q1.078125 -1.15625 2.796875 -1.15625q1.65625 0 2.703125 1.140625q1.0625 1.125 1.0625 3.171875q0 0.125 0 0.375l-6.1875 0q0.078125 1.375 0.765625 2.109375q0.703125 0.71875 1.734375 0.71875q0.78125 0 1.328125 -0.40625q0.546875 -0.40625 0.859375 -1.296875zm-4.609375 -2.28125l4.625 0q-0.09375 -1.046875 -0.53125 -1.5625q-0.671875 -0.8125 -1.734375 -0.8125q-0.96875 0 -1.640625 0.65625q-0.65625 0.640625 -0.71875 1.71875zm10.8984375 3.6875l0.203125 1.25q-0.59375 0.125 -1.0625 0.125q-0.765625 0 -1.1875 -0.234375q-0.421875 -0.25 -0.59375 -0.640625q-0.171875 -0.40625 -0.171875 -1.671875l0 -4.765625l-1.03125 0l0 -1.09375l1.03125 0l0 -2.0625l1.40625 -0.84375l0 2.90625l1.40625 0l0 1.09375l-1.40625 0l0 4.84375q0 0.609375 0.0625 0.78125q0.078125 0.171875 0.25 0.28125q0.171875 0.09375 0.484375 0.09375q0.234375 0 0.609375 -0.0625zm6.2890625 1.265625l-1.40625 0l0 -8.96875q-0.515625 0.484375 -1.34375 0.96875q-0.8125 0.484375 -1.46875 0.734375l0 -1.359375q1.171875 -0.5625 2.046875 -1.34375q0.890625 -0.796875 1.265625 -1.53125l0.90625 0l0 11.5z"
      fill-rule="nonzero" />
    <path fill="#7030a0" d="m338.8402 247.43208l57.606323 0l0 42.01573l-57.606323 0z" fill-rule="evenodd" />
    <path stroke="#000000" stroke-width="1.3333333333333333" stroke-miterlimit="800.0" stroke-linecap="butt"
      d="m338.8402 247.43208l57.606323 0l0 42.01573l-57.606323 0z" fill-rule="evenodd" />
    <path fill="#ffffff"
      d="m360.77618 274.19995l-3.15625 -8.296875l1.484375 0l1.78125 4.96875q0.296875 0.796875 0.53125 1.671875q0.1875 -0.65625 0.53125 -1.578125l1.84375 -5.0625l1.4375 0l-3.140625 8.296875l-1.3125 0zm5.703125 -9.84375l0 -1.609375l1.40625 0l0 1.609375l-1.40625 0zm0 9.84375l0 -8.296875l1.40625 0l0 8.296875l-1.40625 0zm8.9609375 -1.03125q-0.78125 0.671875 -1.5 0.953125q-0.71875 0.265625 -1.546875 0.265625q-1.375 0 -2.109375 -0.671875q-0.734375 -0.671875 -0.734375 -1.703125q0 -0.609375 0.28125 -1.109375q0.28125 -0.515625 0.71875 -0.8125q0.453125 -0.3125 1.015625 -0.46875q0.421875 -0.109375 1.25 -0.203125q1.703125 -0.203125 2.515625 -0.484375q0 -0.296875 0 -0.375q0 -0.859375 -0.390625 -1.203125q-0.546875 -0.484375 -1.609375 -0.484375q-0.984375 0 -1.46875 0.359375q-0.46875 0.34375 -0.6875 1.21875l-1.375 -0.1875q0.1875 -0.875 0.609375 -1.421875q0.4375 -0.546875 1.25 -0.828125q0.8125 -0.296875 1.875 -0.296875q1.0625 0 1.71875 0.25q0.671875 0.25 0.984375 0.625q0.3125 0.375 0.4375 0.953125q0.078125 0.359375 0.078125 1.296875l0 1.875q0 1.96875 0.078125 2.484375q0.09375 0.515625 0.359375 1.0l-1.46875 0q-0.21875 -0.4375 -0.28125 -1.03125zm-0.109375 -3.140625q-0.765625 0.3125 -2.296875 0.53125q-0.875 0.125 -1.234375 0.28125q-0.359375 0.15625 -0.5625 0.46875q-0.1875 0.296875 -0.1875 0.65625q0 0.5625 0.421875 0.9375q0.4375 0.375 1.25 0.375q0.8125 0 1.4375 -0.34375q0.640625 -0.359375 0.9375 -0.984375q0.234375 -0.46875 0.234375 -1.40625l0 -0.515625z"
      fill-rule="nonzero" />
    <path fill="#ffc000" d="m324.00378 218.49452l87.27557 0l0 23.716537l-87.27557 0z" fill-rule="evenodd" />
    <path stroke="#000000" stroke-width="1.3333333333333333" stroke-miterlimit="800.0" stroke-linecap="butt"
      d="m324.00378 218.49452l87.27557 0l0 23.716537l-87.27557 0z" fill-rule="evenodd" />
    <path fill="#00ffff" d="m324.00378 186.6923l87.27557 0l0 34.740158l-87.27557 0z" fill-rule="evenodd" />
    <path stroke="#000000" stroke-width="1.3333333333333333" stroke-miterlimit="800.0" stroke-linecap="butt"
      d="m324.00378 186.6923l87.27557 0l0 34.740158l-87.27557 0z" fill-rule="evenodd" />
    <path fill="#000000"
      d="m357.57516 209.82239l0 -8.296875l1.265625 0l0 1.25q0.484375 -0.875 0.890625 -1.15625q0.40625 -0.28125 0.90625 -0.28125q0.703125 0 1.4375 0.453125l-0.484375 1.296875q-0.515625 -0.296875 -1.03125 -0.296875q-0.453125 0 -0.828125 0.28125q-0.359375 0.265625 -0.515625 0.765625q-0.234375 0.75 -0.234375 1.640625l0 4.34375l-1.40625 0zm10.25 0l-1.40625 0l0 -8.96875q-0.515625 0.484375 -1.34375 0.96875q-0.8125 0.484375 -1.46875 0.734375l0 -1.359375q1.171875 -0.5625 2.046875 -1.34375q0.890625 -0.796875 1.265625 -1.53125l0.90625 0l0 11.5zm9.3984375 -3.046875l1.390625 0.1875q-0.234375 1.421875 -1.171875 2.234375q-0.921875 0.8125 -2.28125 0.8125q-1.703125 0 -2.75 -1.109375q-1.03125 -1.125 -1.03125 -3.203125q0 -1.34375 0.4375 -2.34375q0.453125 -1.015625 1.359375 -1.515625q0.921875 -0.5 1.984375 -0.5q1.359375 0 2.21875 0.6875q0.859375 0.671875 1.09375 1.9375l-1.359375 0.203125q-0.203125 -0.828125 -0.703125 -1.25q-0.484375 -0.421875 -1.1875 -0.421875q-1.0625 0 -1.734375 0.765625q-0.65625 0.75 -0.65625 2.40625q0 1.671875 0.640625 2.4375q0.640625 0.75 1.671875 0.75q0.828125 0 1.375 -0.5q0.5625 -0.515625 0.703125 -1.578125z"
      fill-rule="nonzero" />
    <path fill="#ffff00" d="m324.00378 165.89775l87.27557 0l0 23.716537l-87.27557 0z" fill-rule="evenodd" />
    <path stroke="#000000" stroke-width="1.3333333333333333" stroke-miterlimit="800.0" stroke-linecap="butt"
      d="m324.00378 165.89775l87.27557 0l0 23.716537l-87.27557 0z" fill-rule="evenodd" />
    <path fill="#7030a0" d="m338.8402 122.590515l57.606323 0l0 42.015747l-57.606323 0z" fill-rule="evenodd" />
    <path stroke="#000000" stroke-width="1.3333333333333333" stroke-miterlimit="800.0" stroke-linecap="butt"
      d="m338.8402 122.590515l57.606323 0l0 42.015747l-57.606323 0z" fill-rule="evenodd" />
    <path fill="#ffffff"
      d="m360.77618 149.3584l-3.15625 -8.296875l1.484375 0l1.78125 4.96875q0.296875 0.796875 0.53125 1.671875q0.1875 -0.65625 0.53125 -1.578125l1.84375 -5.0625l1.4375 0l-3.140625 8.296875l-1.3125 0zm5.703125 -9.84375l0 -1.609375l1.40625 0l0 1.609375l-1.40625 0zm0 9.84375l0 -8.296875l1.40625 0l0 8.296875l-1.40625 0zm8.9609375 -1.03125q-0.78125 0.671875 -1.5 0.953125q-0.71875 0.265625 -1.546875 0.265625q-1.375 0 -2.109375 -0.671875q-0.734375 -0.671875 -0.734375 -1.703125q0 -0.609375 0.28125 -1.109375q0.28125 -0.515625 0.71875 -0.8125q0.453125 -0.3125 1.015625 -0.46875q0.421875 -0.109375 1.25 -0.203125q1.703125 -0.203125 2.515625 -0.484375q0 -0.296875 0 -0.375q0 -0.859375 -0.390625 -1.203125q-0.546875 -0.484375 -1.609375 -0.484375q-0.984375 0 -1.46875 0.359375q-0.46875 0.34375 -0.6875 1.21875l-1.375 -0.1875q0.1875 -0.875 0.609375 -1.421875q0.4375 -0.546875 1.25 -0.828125q0.8125 -0.296875 1.875 -0.296875q1.0625 0 1.71875 0.25q0.671875 0.25 0.984375 0.625q0.3125 0.375 0.4375 0.953125q0.078125 0.359375 0.078125 1.296875l0 1.875q0 1.96875 0.078125 2.484375q0.09375 0.515625 0.359375 1.0l-1.46875 0q-0.21875 -0.4375 -0.28125 -1.03125zm-0.109375 -3.140625q-0.765625 0.3125 -2.296875 0.53125q-0.875 0.125 -1.234375 0.28125q-0.359375 0.15625 -0.5625 0.46875q-0.1875 0.296875 -0.1875 0.65625q0 0.5625 0.421875 0.9375q0.4375 0.375 1.25 0.375q0.8125 0 1.4375 -0.34375q0.640625 -0.359375 0.9375 -0.984375q0.234375 -0.46875 0.234375 -1.40625l0 -0.515625z"
      fill-rule="nonzero" />
    <path fill="#0000ff" d="m301.19266 83.82168l387.46457 0l0 42.015747l-387.46457 0z" fill-rule="evenodd" />
    <path stroke="#000000" stroke-width="1.3333333333333333" stroke-miterlimit="800.0" stroke-linecap="butt"
      d="m301.19266 83.82168l387.46457 0l0 42.015747l-387.46457 0z" fill-rule="evenodd" />
    <path fill="#ffffff"
      d="m478.2023 110.589554l0 -8.296875l1.25 0l0 1.15625q0.390625 -0.609375 1.03125 -0.96875q0.65625 -0.375 1.484375 -0.375q0.921875 0 1.515625 0.390625q0.59375 0.375 0.828125 1.0625q0.984375 -1.453125 2.5625 -1.453125q1.234375 0 1.890625 0.6875q0.671875 0.671875 0.671875 2.09375l0 5.703125l-1.390625 0l0 -5.234375q0 -0.84375 -0.140625 -1.203125q-0.140625 -0.375 -0.5 -0.59375q-0.359375 -0.234375 -0.84375 -0.234375q-0.875 0 -1.453125 0.578125q-0.578125 0.578125 -0.578125 1.859375l0 4.828125l-1.40625 0l0 -5.390625q0 -0.9375 -0.34375 -1.40625q-0.34375 -0.46875 -1.125 -0.46875q-0.59375 0 -1.09375 0.3125q-0.5 0.3125 -0.734375 0.921875q-0.21875 0.59375 -0.21875 1.71875l0 4.3125l-1.40625 0zm19.0 -2.671875l1.453125 0.171875q-0.34375 1.28125 -1.28125 1.984375q-0.921875 0.703125 -2.359375 0.703125q-1.828125 0 -2.890625 -1.125q-1.0625 -1.125 -1.0625 -3.140625q0 -2.09375 1.078125 -3.25q1.078125 -1.15625 2.796875 -1.15625q1.65625 0 2.703125 1.140625q1.0625 1.125 1.0625 3.171875q0 0.125 0 0.375l-6.1875 0q0.078125 1.375 0.765625 2.109375q0.703125 0.71875 1.734375 0.71875q0.78125 0 1.328125 -0.40625q0.546875 -0.40625 0.859375 -1.296875zm-4.609375 -2.28125l4.625 0q-0.09375 -1.046875 -0.53125 -1.5625q-0.671875 -0.8125 -1.734375 -0.8125q-0.96875 0 -1.640625 0.65625q-0.65625 0.640625 -0.71875 1.71875zm10.8984375 3.6875l0.203125 1.25q-0.59375 0.125 -1.0625 0.125q-0.765625 0 -1.1875 -0.234375q-0.421875 -0.25 -0.59375 -0.640625q-0.171875 -0.40625 -0.171875 -1.671875l0 -4.765625l-1.03125 0l0 -1.09375l1.03125 0l0 -2.0625l1.40625 -0.84375l0 2.90625l1.40625 0l0 1.09375l-1.40625 0l0 4.84375q0 0.609375 0.0625 0.78125q0.078125 0.171875 0.25 0.28125q0.171875 0.09375 0.484375 0.09375q0.234375 0 0.609375 -0.0625zm8.3828125 -0.09375l0 1.359375l-7.578125 0q-0.015625 -0.515625 0.171875 -0.984375q0.28125 -0.765625 0.921875 -1.515625q0.640625 -0.75 1.84375 -1.734375q1.859375 -1.53125 2.515625 -2.421875q0.65625 -0.90625 0.65625 -1.703125q0 -0.828125 -0.59375 -1.40625q-0.59375 -0.578125 -1.5625 -0.578125q-1.015625 0 -1.625 0.609375q-0.609375 0.609375 -0.609375 1.6875l-1.453125 -0.140625q0.15625 -1.625 1.125 -2.46875q0.96875 -0.84375 2.59375 -0.84375q1.65625 0 2.609375 0.921875q0.96875 0.90625 0.96875 2.25q0 0.6875 -0.28125 1.359375q-0.28125 0.65625 -0.9375 1.390625q-0.65625 0.734375 -2.171875 2.015625q-1.265625 1.0625 -1.625 1.453125q-0.359375 0.375 -0.59375 0.75l5.625 0z"
      fill-rule="nonzero" />
    <path fill="#7030a0" d="m528.2137 126.770195l57.606262 0l0 162.67715l-57.606262 0z" fill-rule="evenodd" />
    <path stroke="#000000" stroke-width="1.3333333333333333" stroke-miterlimit="800.0" stroke-linecap="butt"
      d="m528.2137 126.770195l57.606262 0l0 162.67715l-57.606262 0z" fill-rule="evenodd" />
    <path fill="#ffffff"
      d="m550.1496 213.86877l-3.15625 -8.296875l1.484375 0l1.78125 4.96875q0.296875 0.796875 0.53125 1.671875q0.1875 -0.65625 0.53125 -1.578125l1.84375 -5.0625l1.4375 0l-3.140625 8.296875l-1.3125 0zm5.703125 -9.84375l0 -1.609375l1.40625 0l0 1.609375l-1.40625 0zm0 9.84375l0 -8.296875l1.40625 0l0 8.296875l-1.40625 0zm8.9609375 -1.03125q-0.78125 0.671875 -1.5 0.953125q-0.71875 0.265625 -1.546875 0.265625q-1.375 0 -2.109375 -0.671875q-0.734375 -0.671875 -0.734375 -1.703125q0 -0.609375 0.28125 -1.109375q0.28125 -0.515625 0.71875 -0.8125q0.453125 -0.3125 1.015625 -0.46875q0.421875 -0.109375 1.25 -0.203125q1.703125 -0.203125 2.515625 -0.484375q0 -0.296875 0 -0.375q0 -0.859375 -0.390625 -1.203125q-0.546875 -0.484375 -1.609375 -0.484375q-0.984375 0 -1.46875 0.359375q-0.46875 0.34375 -0.6875 1.21875l-1.375 -0.1875q0.1875 -0.875 0.609375 -1.421875q0.4375 -0.546875 1.25 -0.828125q0.8125 -0.296875 1.875 -0.296875q1.0625 0 1.71875 0.25q0.671875 0.25 0.984375 0.625q0.3125 0.375 0.4375 0.953125q0.078125 0.359375 0.078125 1.296875l0 1.875q0 1.96875 0.078125 2.484375q0.09375 0.515625 0.359375 1.0l-1.46875 0q-0.21875 -0.4375 -0.28125 -1.03125zm-0.109375 -3.140625q-0.765625 0.3125 -2.296875 0.53125q-0.875 0.125 -1.234375 0.28125q-0.359375 0.15625 -0.5625 0.46875q-0.1875 0.296875 -0.1875 0.65625q0 0.5625 0.421875 0.9375q0.4375 0.375 1.25 0.375q0.8125 0 1.4375 -0.34375q0.640625 -0.359375 0.9375 -0.984375q0.234375 -0.46875 0.234375 -1.40625l0 -0.515625z"
      fill-rule="nonzero" />
    <path fill="#000000" fill-opacity="0.0" d="m154.76367 81.6l662.1102 0" fill-rule="evenodd" />
    <path stroke="#a5a5a5" stroke-width="4.0" stroke-miterlimit="800.0" stroke-linecap="butt"
      stroke-dasharray="16.0,12.0" d="m154.76367 81.6l662.1102 0" fill-rule="evenodd" />
  </g>
</svg>
