<?xml version="1.0" encoding="UTF-8" standalone="no"?>
<!-- Creator: CorelDRAW X8 -->

<svg xml:space="preserve" width="1.3427991in" height="0.90766233in" version="1.1" style="clip-rule:evenodd;fill-rule:evenodd;image-rendering:optimizeQuality;shape-rendering:geometricPrecision;text-rendering:geometricPrecision" viewBox="0 0 1342.7991 907.66234" id="svg160" sodipodi:docname="4T1R.svg" inkscape:version="1.1 (c68e22c387, 2021-05-23)"
  xmlns:inkscape="http://www.inkscape.org/namespaces/inkscape"
  xmlns:sodipodi="http://sodipodi.sourceforge.net/DTD/sodipodi-0.dtd"
  xmlns="http://www.w3.org/2000/svg"
  xmlns:svg="http://www.w3.org/2000/svg">
  <sodipodi:namedview id="namedview162" pagecolor="#ffffff" bordercolor="#666666" borderopacity="1.0" inkscape:pageshadow="2" inkscape:pageopacity="0.0" inkscape:pagecheckerboard="0" inkscape:document-units="in" showgrid="false" fit-margin-top="0" fit-margin-left="0" fit-margin-right="0" fit-margin-bottom="0" inkscape:zoom="5.6568542" inkscape:cx="43.221902" inkscape:cy="66.202872" inkscape:window-width="1920" inkscape:window-height="1017" inkscape:window-x="-8" inkscape:window-y="-8" inkscape:window-maximized="1" inkscape:current-layer="Layer_x0020_1" showguides="true" inkscape:guide-bbox="true">
    <sodipodi:guide position="1197.9167,433.25381" orientation="1,0" id="guide3979" />
  </sodipodi:namedview>
  <defs id="defs4">
    <marker style="overflow:visible" id="marker4003" refX="0" refY="0" orient="auto" inkscape:stockid="DotS" inkscape:isstock="true">
      <path transform="matrix(0.2,0,0,0.2,1.48,0.2)" style="fill:#0000ff;fill-rule:evenodd;stroke:context-stroke;stroke-width:0pt" d="m -2.5,-1 c 0,2.76 -2.24,5 -5,5 -2.76,0 -5,-2.24 -5,-5 0,-2.76 2.24,-5 5,-5 2.76,0 5,2.24 5,5 z" id="path4001" />
    </marker>
    <marker style="overflow:visible" id="marker3993" refX="0" refY="0" orient="auto" inkscape:stockid="DotS" inkscape:isstock="true">
      <path transform="matrix(0.2,0,0,0.2,1.48,0.2)" style="fill:#0000ff;fill-rule:evenodd;stroke:context-stroke;stroke-width:0pt" d="m -2.5,-1 c 0,2.76 -2.24,5 -5,5 -2.76,0 -5,-2.24 -5,-5 0,-2.76 2.24,-5 5,-5 2.76,0 5,2.24 5,5 z" id="path3991" />
    </marker>
    <marker style="overflow:visible" id="marker3983" refX="0" refY="0" orient="auto" inkscape:stockid="DotS" inkscape:isstock="true">
      <path transform="matrix(0.2,0,0,0.2,1.48,0.2)" style="fill:#0000ff;fill-rule:evenodd;stroke:context-stroke;stroke-width:0pt" d="m -2.5,-1 c 0,2.76 -2.24,5 -5,5 -2.76,0 -5,-2.24 -5,-5 0,-2.76 2.24,-5 5,-5 2.76,0 5,2.24 5,5 z" id="path3981" />
    </marker>
    <marker style="overflow:visible" id="marker1863" refX="0" refY="0" orient="auto" inkscape:stockid="DotS" inkscape:isstock="true">
      <path transform="matrix(0.2,0,0,0.2,1.48,0.2)" style="fill:#0000ff;fill-rule:evenodd;stroke:context-stroke;stroke-width:0pt" d="m -2.5,-1 c 0,2.76 -2.24,5 -5,5 -2.76,0 -5,-2.24 -5,-5 0,-2.76 2.24,-5 5,-5 2.76,0 5,2.24 5,5 z" id="path1861" />
    </marker>
    <marker style="overflow:visible" id="DotS" refX="0" refY="0" orient="auto" inkscape:stockid="DotS" inkscape:isstock="true">
      <path transform="matrix(0.2,0,0,0.2,1.48,0.2)" style="fill:#0000ff;fill-rule:evenodd;stroke:context-stroke;stroke-width:0pt" d="m -2.5,-1 c 0,2.76 -2.24,5 -5,5 -2.76,0 -5,-2.24 -5,-5 0,-2.76 2.24,-5 5,-5 2.76,0 5,2.24 5,5 z" id="path1658" />
    </marker>
    <style type="text/css" id="style2">
      <![CDATA[
    .str0 {stroke:#373435;stroke-width:13.8898}
    .str2 {stroke:#373435;stroke-width:6.94488}
    .str1 {stroke:#373435;stroke-width:6.94488}
    .str3 {stroke:#373435;stroke-width:13.8858;stroke-linecap:round;stroke-linejoin:round}
    .fil3 {fill:none}
    .fil0 {fill:none;fill-rule:nonzero}
    .fil1 {fill:#373435}
    .fil2 {fill:#373435;fill-rule:nonzero}
    .fnt1 {font-weight:normal;font-size:55.5551px;font-family:'LATO'}
    .fnt0 {font-weight:normal;font-size:69.4449px;font-family:'LATO'}
    .fnt2 {font-weight:normal;font-size:83.3346px;font-family:'LATO'}
   ]]>
    </style>
    <marker style="overflow:visible" id="marker4003-7" refX="0" refY="0" orient="auto" inkscape:stockid="DotS" inkscape:isstock="true">
      <path transform="matrix(0.2,0,0,0.2,1.48,0.2)" style="fill:#0000ff;fill-rule:evenodd;stroke:context-stroke;stroke-width:1pt" d="m -2.5,-1 c 0,2.76 -2.24,5 -5,5 -2.76,0 -5,-2.24 -5,-5 0,-2.76 2.24,-5 5,-5 2.76,0 5,2.24 5,5 z" id="path4001-3" />
    </marker>
    <marker style="overflow:visible" id="marker4003-7-0" refX="0" refY="0" orient="auto" inkscape:stockid="DotS" inkscape:isstock="true">
      <path transform="matrix(0.2,0,0,0.2,1.48,0.2)" style="fill:#0000ff;fill-rule:evenodd;stroke:context-stroke;stroke-width:1pt" d="m -2.5,-1 c 0,2.76 -2.24,5 -5,5 -2.76,0 -5,-2.24 -5,-5 0,-2.76 2.24,-5 5,-5 2.76,0 5,2.24 5,5 z" id="path4001-3-9" />
    </marker>
  </defs>
  <g id="Layer_x0020_1" inkscape:label="Layer 1" inkscape:groupmode="layer" transform="translate(113.23629,-121.50862)">
    <metadata id="CorelCorpID_0Corel-Layer" />
    <rect class="fil3 str2" x="72.666664" y="185.84372" width="960" height="654.07294" id="rect151" style="fill:#fff6d5;fill-opacity:1;stroke-width:7.05396;stroke-miterlimit:4;stroke-dasharray:7.05396, 7.05396;stroke-dashoffset:0" />
    <line class="fil0 str0" x1="419.66666" y1="514.91669" x2="34.137535" y2="514.91669" id="line7" style="stroke-width:15;stroke-miterlimit:4;stroke-dasharray:none;marker-end:url(#marker1863)" />
    <polygon class="fil0 str0" points="3872,6728 3872,6655 4151,6655 4151,6728 " id="polygon9" transform="translate(-3458.3333,-6177.0833)" />
    <g transform="matrix(0.00162003,-0.999999,-0.999999,-0.00162003,5850.7167,4736.4167)" id="g13">
      <text x="4250" y="5500" class="fil1 fnt0" id="text11">+</text>
    </g>
    <line class="fil0 str0" x1="680.66669" y1="587.91669" x2="475.66666" y2="434.91666" id="line15" />
    <polygon class="fil2" points="3895,6583 3922,6644 3961,6591 " id="polygon17" transform="translate(-3458.3333,-6177.0833)" />
    <line class="fil0 str0" x1="901.66669" y1="574.91669" x2="901.66669" y2="757.91669" id="line19" />
    <line class="fil0 str0" x1="907.66669" y1="578.91669" x2="797.66669" y2="578.91669" id="line21" />
    <line class="fil0 str0" x1="907.66669" y1="754.91669" x2="797.66669" y2="754.91669" id="line23" />
    <line class="fil0 str0" x1="929.66669" y1="573.91669" x2="929.66669" y2="757.91669" id="line25" />
    <line class="fil0 str0" x1="866.66669" y1="604.91669" x2="866.66669" y2="722.91669" id="line27" />
    <line class="fil0 str0" x1="866.66669" y1="666.91669" x2="797.66669" y2="666.91669" id="line29" />
    <line class="fil0 str0" x1="804.66669" y1="786.91669" x2="804.66669" y2="664.91669" id="line31" />
    <line class="fil0 str0" x1="804.66669" y1="578.91669" x2="804.66669" y2="508.91666" id="line33" />
    <line class="fil0 str0" x1="929.66669" y1="662.91669" x2="1084.6804" y2="662.91669" id="line35" style="stroke-width:15;stroke-miterlimit:4;stroke-dasharray:none;marker-end:url(#marker3983)" />
    <line class="fil0 str0" x1="804.66669" y1="754.91669" x2="803.66669" y2="815.91669" id="line37" />
    <line class="fil0 str0" x1="691.45837" y1="514.91669" x2="1084.6804" y2="514.91669" id="line39" style="stroke-width:14.9094;stroke-miterlimit:4;stroke-dasharray:none;marker-end:url(#marker3993)" />
    <line class="fil0 str0" x1="197.66667" y1="574.91669" x2="197.66667" y2="757.91669" id="line41" />
    <line class="fil0 str0" x1="191.66667" y1="578.91669" x2="301.66666" y2="578.91669" id="line43" />
    <line class="fil0 str0" x1="191.66667" y1="754.91669" x2="301.66666" y2="754.91669" id="line45" />
    <line class="fil0 str0" x1="169.66667" y1="573.91669" x2="169.66667" y2="757.91669" id="line47" />
    <line class="fil0 str0" x1="232.66667" y1="604.91669" x2="232.66667" y2="722.91669" id="line49" />
    <line class="fil0 str0" x1="232.66667" y1="666.91669" x2="301.66666" y2="666.91669" id="line51" />
    <line class="fil0 str0" x1="294.66666" y1="786.91669" x2="294.66666" y2="664.91669" id="line53" />
    <line class="fil0 str0" x1="294.66666" y1="578.91669" x2="294.66666" y2="508.91666" id="line55" />
    <line class="fil0 str0" x1="169.66667" y1="662.91669" x2="34.387241" y2="662.91669" id="line57" style="stroke-width:15;stroke-miterlimit:4;stroke-dasharray:none;marker-end:url(#marker1863)" />
    <line class="fil0 str0" x1="294.66666" y1="754.91669" x2="294.66666" y2="815.91669" id="line59" />
    <line class="fil0 str0" x1="199.66667" y1="294.91666" x2="199.66667" y2="448.91666" id="line61" />
    <line class="fil0 str0" x1="199.66667" y1="265.91666" x2="199.66667" y2="294.91666" id="line63" />
    <line class="fil0 str0" x1="192.66667" y1="266.91666" x2="296.66666" y2="266.91666" id="line65" />
    <line class="fil0 str0" x1="192.66667" y1="442.91666" x2="303.66666" y2="442.91666" id="line67" />
    <line class="fil0 str0" x1="171.66667" y1="265.91666" x2="171.66667" y2="448.91666" id="line69" />
    <line class="fil0 str0" x1="233.66667" y1="296.91666" x2="233.66667" y2="414.91666" id="line71" />
    <line class="fil0 str0" x1="233.66667" y1="354.91666" x2="303.66666" y2="354.91666" id="line73" />
    <line class="fil0 str0" x1="296.66666" y1="354.91666" x2="296.66666" y2="232.91667" id="line75" />
    <line class="fil0 str0" x1="296.66666" y1="238.91667" x2="296.66666" y2="212.91667" id="line77" />
    <line class="fil0 str0" x1="296.66666" y1="510.91666" x2="296.66666" y2="442.91666" id="line79" />
    <path class="fil0 str1" d="m 126.66667,353.91667 c 0,-9 7,-17 17,-17 10,0 17,8 17,17 0,10 -7,17 -17,17 -10,0 -17,-7 -17,-17 z" id="path81" />
    <line class="fil0 str0" x1="126.66666" y1="353.91666" x2="35.710354" y2="353.91666" id="line83" style="opacity:0.97;stroke-width:15;stroke-miterlimit:4;stroke-dasharray:none;marker-end:url(#DotS)" />
    <line class="fil0 str0" x1="901.66669" y1="295.91666" x2="901.66669" y2="449.91666" id="line85" />
    <line class="fil0 str0" x1="901.66669" y1="266.91666" x2="901.66669" y2="295.91666" id="line87" />
    <line class="fil0 str0" x1="908.66669" y1="267.91666" x2="804.66669" y2="267.91666" id="line89" />
    <line class="fil0 str0" x1="908.66669" y1="443.91666" x2="797.66669" y2="443.91666" id="line91" />
    <line class="fil0 str0" x1="929.66669" y1="266.91666" x2="929.66669" y2="449.91666" id="line93" />
    <line class="fil0 str0" x1="866.66669" y1="297.91666" x2="866.66669" y2="414.91666" id="line95" />
    <line class="fil0 str0" x1="866.66669" y1="355.91666" x2="797.66669" y2="355.91666" id="line97" />
    <line class="fil0 str0" x1="804.66669" y1="355.91666" x2="804.66669" y2="233.91667" id="line99" />
    <line class="fil0 str0" x1="804.66669" y1="239.91667" x2="804.66669" y2="213.91667" id="line101" />
    <line class="fil0 str0" x1="804.66669" y1="541.91669" x2="804.66669" y2="443.91666" id="line103" />
    <path class="fil0 str1" d="m 974.66667,354.91667 c 0,-10 -8,-17 -17,-17 -10,0 -18,7 -18,17 0,10 8,17 18,17 9,0 17,-7 17,-17 z" id="path105" />
    <line class="fil0 str0" x1="974.66669" y1="354.91666" x2="1084.6804" y2="354.91666" id="line107" style="stroke-width:15;stroke-miterlimit:4;stroke-dasharray:none;marker-end:url(#marker4003)" />
    <line class="fil0 str0" x1="549.16669" y1="214.30803" x2="549.16669" y2="138.20862" id="line107-9" style="clip-rule:evenodd;fill:none;fill-rule:nonzero;stroke:#373435;stroke-width:15;stroke-miterlimit:4;stroke-dasharray:none;marker-end:url(#marker4003-7);image-rendering:optimizeQuality;shape-rendering:geometricPrecision;text-rendering:geometricPrecision" />
    <line class="fil0 str0" x1="549.16669" y1="811.93176" x2="549.16669" y2="888.03113" id="line107-9-4" style="clip-rule:evenodd;fill:none;fill-rule:nonzero;stroke:#373435;stroke-width:15;stroke-miterlimit:4;stroke-dasharray:none;marker-end:url(#marker4003-7-0);image-rendering:optimizeQuality;shape-rendering:geometricPrecision;text-rendering:geometricPrecision" />
    <path class="fil2" d="m 310.66667,514.91667 c 0,8 -7,15 -16,15 -8,0 -15,-7 -15,-15 0,-9 7,-15 15,-15 9,0 16,6 16,15 z" id="path109" />
    <path class="fil0 str0" d="m 310.66667,514.91667 c 0,8 -7,15 -16,15 -8,0 -15,-7 -15,-15 0,-9 7,-15 15,-15 9,0 16,6 16,15 z" id="path111" />
    <path class="fil2" d="m 819.66667,514.91667 c 0,8 -7,15 -15,15 -9,0 -15,-7 -15,-15 0,-9 6,-15 15,-15 8,0 15,6 15,15 z" id="path113" />
    <path class="fil0 str0" d="m 819.66667,514.91667 c 0,8 -7,15 -15,15 -9,0 -15,-7 -15,-15 0,-9 6,-15 15,-15 8,0 15,6 15,15 z" id="path115" />
    <text x="576.77081" y="903.34375" class="fil1 fnt1" id="text117">GND</text>
    <text x="578.97614" y="165.47932" class="fil1 fnt1" id="text117-8" style="font-weight:normal;font-size:55.5551px;font-family:LATO;clip-rule:evenodd;fill:#373435;fill-rule:evenodd;image-rendering:optimizeQuality;shape-rendering:geometricPrecision;text-rendering:geometricPrecision">VDD</text>






    <text x="-118.06958" y="372.91666" class="fil1 fnt1" id="text131">BLB0</text>
    <text x="-100.06958" y="681.91669" class="fil1 fnt1" id="text133">WL0</text>
    <text x="1099.814" y="375.52081" class="fil1 fnt1" id="text135">BLB1</text>
    <text x="1104.2584" y="684.52087" class="fil1 fnt1" id="text137">WL1</text>
    <g transform="translate(-4301.8115,-4969.8733)" id="g141">
      <text x="4250" y="5500" class="fil1 fnt1" id="text139">TE</text>
    </g>
    <g transform="translate(-3150.186,-4967.2691)" id="g145">
      <text x="4250" y="5500" class="fil1 fnt1" id="text143">BE</text>
    </g>
    <g transform="matrix(1.28955,0,0,1,-4800.1833,-5032.9533)" id="g149">
      <text x="4250" y="5500" class="fil1 fnt2" id="text147">-</text>
    </g>

    <line class="fil3 str3" x1="296.66666" y1="212.91667" x2="805.66669" y2="212.91667" id="line153" />
    <line class="fil3 str3" x1="294.66666" y1="815.91669" x2="803.66669" y2="815.91669" id="line153-9" style="clip-rule:evenodd;fill:none;fill-rule:evenodd;stroke:#373435;stroke-width:13.8858;stroke-linecap:round;stroke-linejoin:round;image-rendering:optimizeQuality;shape-rendering:geometricPrecision;text-rendering:geometricPrecision" />


    <text xml:space="preserve" style="font-style:italic;font-variant:normal;font-weight:bold;font-stretch:normal;font-size:97.2222px;line-height:1.25;font-family:LATO;-inkscape-font-specification:'LATO, Bold Italic';font-variant-ligatures:normal;font-variant-caps:normal;font-variant-numeric:normal;font-variant-east-asian:normal;fill:#333333;fill-opacity:1;stroke:none;stroke-width:10.4167" x="236.63431" y="1005.3921" id="text10690">
      <tspan sodipodi:role="line" id="tspan10688" style="font-style:italic;font-variant:normal;font-weight:bold;font-stretch:normal;font-size:97.2222px;font-family:LATO;-inkscape-font-specification:'LATO, Bold Italic';font-variant-ligatures:normal;font-variant-caps:normal;font-variant-numeric:normal;font-variant-east-asian:normal;fill:#333333;stroke-width:10.4167" x="236.63431" y="1005.3921">4T1R Structure</tspan>
    </text>
  </g>
</svg>
